G04 (created by PCBNEW (2013-07-07 BZR 4022)-stable) date 1/13/2014 9:19:25 PM*
%MOIN*%
G04 Gerber Fmt 3.4, Leading zero omitted, Abs format*
%FSLAX34Y34*%
G01*
G70*
G90*
G04 APERTURE LIST*
%ADD10C,0.00590551*%
%ADD11R,0.0866142X0.0472441*%
%ADD12R,0.102362X0.102362*%
%ADD13R,0.00984252X0.0511811*%
%ADD14R,0.0511811X0.00984252*%
%ADD15R,0.055X0.035*%
%ADD16R,0.035X0.055*%
%ADD17R,0.055X0.055*%
%ADD18C,0.055*%
%ADD19C,0.035*%
%ADD20C,0.01*%
%ADD21C,0.02*%
G04 APERTURE END LIST*
G54D10*
G54D11*
X49512Y-33233D03*
X51087Y-33233D03*
X49512Y-32366D03*
X51087Y-32366D03*
G54D12*
X49200Y-35300D03*
G54D13*
X49200Y-34394D03*
X49003Y-34394D03*
X48806Y-34394D03*
X49396Y-34394D03*
X49593Y-34394D03*
X49200Y-36205D03*
X49003Y-36205D03*
X48806Y-36205D03*
X49396Y-36205D03*
X49593Y-36205D03*
G54D14*
X50105Y-34906D03*
X50105Y-35103D03*
X50105Y-35300D03*
X50105Y-35496D03*
X50105Y-35693D03*
X48294Y-35693D03*
X48294Y-35496D03*
X48294Y-35300D03*
X48294Y-35103D03*
X48294Y-34906D03*
G54D15*
X46500Y-32525D03*
X46500Y-33275D03*
G54D16*
X45725Y-35300D03*
X46475Y-35300D03*
G54D15*
X47800Y-37875D03*
X47800Y-37125D03*
X46700Y-37875D03*
X46700Y-37125D03*
X45600Y-37875D03*
X45600Y-37125D03*
G54D16*
X46475Y-34200D03*
X45725Y-34200D03*
G54D15*
X47400Y-34625D03*
X47400Y-35375D03*
G54D16*
X50425Y-38000D03*
X51175Y-38000D03*
X50425Y-37000D03*
X51175Y-37000D03*
G54D15*
X44700Y-34525D03*
X44700Y-35275D03*
G54D17*
X44700Y-33300D03*
G54D18*
X44700Y-32300D03*
G54D17*
X45700Y-39300D03*
G54D18*
X44700Y-39300D03*
G54D17*
X50700Y-39300D03*
G54D18*
X49700Y-39300D03*
X48700Y-39300D03*
X47700Y-39300D03*
G54D17*
X52700Y-34300D03*
G54D18*
X52700Y-35300D03*
X52700Y-36300D03*
X52700Y-37300D03*
X52700Y-38300D03*
X52700Y-39300D03*
G54D19*
X49000Y-33900D03*
X49100Y-37200D03*
X48800Y-38000D03*
X48500Y-33900D03*
X51600Y-38000D03*
X48200Y-34300D03*
X48200Y-36100D03*
X45300Y-34700D03*
X45700Y-32900D03*
X45700Y-33500D03*
X45200Y-33900D03*
X50800Y-36100D03*
X44700Y-36000D03*
X45300Y-36000D03*
X45900Y-36000D03*
X46500Y-36000D03*
X47100Y-36000D03*
X47700Y-36000D03*
X47700Y-34100D03*
X47200Y-34100D03*
X47200Y-33500D03*
X47200Y-32900D03*
X48900Y-35600D03*
X49500Y-35600D03*
X49500Y-35000D03*
X48900Y-35000D03*
X49400Y-38400D03*
X51600Y-37000D03*
G54D20*
X49003Y-34394D02*
X49003Y-33903D01*
X49003Y-33903D02*
X49000Y-33900D01*
X49100Y-37200D02*
X49100Y-38900D01*
X49003Y-33903D02*
X49000Y-33900D01*
X49100Y-38900D02*
X48700Y-39300D01*
X48806Y-34394D02*
X48806Y-34206D01*
X47700Y-39100D02*
X47700Y-39300D01*
X48800Y-38000D02*
X47700Y-39100D01*
X48806Y-34206D02*
X48500Y-33900D01*
X48294Y-34906D02*
X48294Y-34394D01*
X48294Y-34394D02*
X48200Y-34300D01*
X52700Y-39300D02*
X52700Y-39100D01*
X51600Y-38000D02*
X51175Y-38000D01*
X52700Y-39100D02*
X51600Y-38000D01*
G54D21*
X47700Y-36000D02*
X48100Y-36000D01*
X48100Y-36000D02*
X48200Y-36100D01*
X45700Y-33500D02*
X45600Y-33500D01*
X46075Y-32525D02*
X45700Y-32900D01*
X46075Y-32525D02*
X46500Y-32525D01*
X45600Y-33500D02*
X45200Y-33900D01*
X50425Y-37000D02*
X50425Y-36475D01*
X50425Y-36475D02*
X50800Y-36100D01*
X47800Y-37125D02*
X47800Y-36100D01*
X45900Y-36000D02*
X45300Y-36000D01*
X47100Y-36000D02*
X46500Y-36000D01*
X47800Y-36100D02*
X47700Y-36000D01*
X46500Y-32525D02*
X46825Y-32525D01*
X47200Y-33500D02*
X47200Y-34100D01*
X46825Y-32525D02*
X47200Y-32900D01*
X48900Y-35600D02*
X49200Y-35300D01*
X49200Y-35300D02*
X49300Y-35300D01*
X49300Y-35300D02*
X49500Y-35600D01*
X49500Y-35000D02*
X49200Y-35300D01*
X48900Y-35000D02*
X49200Y-35300D01*
X49385Y-32485D02*
X49350Y-32450D01*
G54D20*
X49200Y-34512D02*
X49200Y-35300D01*
X52700Y-38300D02*
X52200Y-37800D01*
X51293Y-35693D02*
X49987Y-35693D01*
X51900Y-36300D02*
X51293Y-35693D01*
X51900Y-36800D02*
X51900Y-36300D01*
X52200Y-37100D02*
X51900Y-36800D01*
X52200Y-37800D02*
X52200Y-37100D01*
X49396Y-36087D02*
X49396Y-38396D01*
X49396Y-38396D02*
X49400Y-38400D01*
X52700Y-34300D02*
X52500Y-34300D01*
X51893Y-34906D02*
X49987Y-34906D01*
X52500Y-34300D02*
X51893Y-34906D01*
X52700Y-35300D02*
X52400Y-35300D01*
X49987Y-35106D02*
X49987Y-35103D01*
X52206Y-35106D02*
X49987Y-35106D01*
X52400Y-35300D02*
X52206Y-35106D01*
X49700Y-36800D02*
X49700Y-39300D01*
X49593Y-36693D02*
X49700Y-36800D01*
X49593Y-36087D02*
X49593Y-36693D01*
X51175Y-37000D02*
X51600Y-37000D01*
X52700Y-36300D02*
X52200Y-35800D01*
X52000Y-35300D02*
X49987Y-35300D01*
X52200Y-35500D02*
X52000Y-35300D01*
X52200Y-35800D02*
X52200Y-35500D01*
G54D21*
X44700Y-34525D02*
X44700Y-33300D01*
X47400Y-35375D02*
X46550Y-35375D01*
G54D20*
X46550Y-35375D02*
X46475Y-35300D01*
X48294Y-35300D02*
X47475Y-35300D01*
X47475Y-35300D02*
X47400Y-35375D01*
X47800Y-35000D02*
X47903Y-35103D01*
X48294Y-35103D02*
X47903Y-35103D01*
G54D21*
X47425Y-34625D02*
X47800Y-35000D01*
X47425Y-34625D02*
X47400Y-34625D01*
X46475Y-34200D02*
X46475Y-33300D01*
G54D20*
X46475Y-33300D02*
X46500Y-33275D01*
G54D21*
X47400Y-34625D02*
X46900Y-34625D01*
X46900Y-34625D02*
X46475Y-34200D01*
X45725Y-35300D02*
X44725Y-35300D01*
G54D20*
X44725Y-35300D02*
X44700Y-35275D01*
G54D21*
X45725Y-34200D02*
X45725Y-35300D01*
G54D20*
X52700Y-37300D02*
X52200Y-36800D01*
X51496Y-35496D02*
X49987Y-35496D01*
X52200Y-36200D02*
X51496Y-35496D01*
X52200Y-36800D02*
X52200Y-36200D01*
X47800Y-37875D02*
X48125Y-37875D01*
G54D21*
X48500Y-37000D02*
X48800Y-36700D01*
X48500Y-37500D02*
X48500Y-37000D01*
X48125Y-37875D02*
X48500Y-37500D01*
X46700Y-37875D02*
X47800Y-37875D01*
X45600Y-37875D02*
X46700Y-37875D01*
X44700Y-39300D02*
X44700Y-38775D01*
X44700Y-38775D02*
X45600Y-37875D01*
X48800Y-36700D02*
X49100Y-36700D01*
G54D20*
X49200Y-36600D02*
X49200Y-36087D01*
X49200Y-36600D02*
X49100Y-36700D01*
X48800Y-36700D02*
X48800Y-36093D01*
X48800Y-36093D02*
X48806Y-36087D01*
X49396Y-34394D02*
X49396Y-33903D01*
G54D21*
X49630Y-33669D02*
X49630Y-33233D01*
X49396Y-33903D02*
X49630Y-33669D01*
G54D20*
X49800Y-34200D02*
X49788Y-34200D01*
G54D21*
X50300Y-33700D02*
X49800Y-34200D01*
X50969Y-32366D02*
X50583Y-32366D01*
X50300Y-32650D02*
X50300Y-33688D01*
X50583Y-32366D02*
X50300Y-32650D01*
X50300Y-33688D02*
X50300Y-33700D01*
G54D20*
X49788Y-34200D02*
X49593Y-34394D01*
G54D10*
G36*
X49257Y-35350D02*
X49250Y-35350D01*
X49250Y-35357D01*
X49150Y-35357D01*
X49150Y-35350D01*
X49142Y-35350D01*
X49142Y-35250D01*
X49150Y-35250D01*
X49150Y-35242D01*
X49250Y-35242D01*
X49250Y-35250D01*
X49257Y-35250D01*
X49257Y-35350D01*
X49257Y-35350D01*
G37*
G54D20*
X49257Y-35350D02*
X49250Y-35350D01*
X49250Y-35357D01*
X49150Y-35357D01*
X49150Y-35350D01*
X49142Y-35350D01*
X49142Y-35250D01*
X49150Y-35250D01*
X49150Y-35242D01*
X49250Y-35242D01*
X49250Y-35250D01*
X49257Y-35250D01*
X49257Y-35350D01*
G54D10*
G36*
X53350Y-39950D02*
X53125Y-39950D01*
X53125Y-39215D01*
X53060Y-39059D01*
X52941Y-38939D01*
X52784Y-38875D01*
X52757Y-38875D01*
X52602Y-38719D01*
X52615Y-38724D01*
X52784Y-38725D01*
X52940Y-38660D01*
X53060Y-38541D01*
X53124Y-38384D01*
X53125Y-38215D01*
X53060Y-38059D01*
X52941Y-37939D01*
X52784Y-37875D01*
X52615Y-37874D01*
X52574Y-37891D01*
X52400Y-37717D01*
X52400Y-37601D01*
X52458Y-37660D01*
X52615Y-37724D01*
X52784Y-37725D01*
X52940Y-37660D01*
X53060Y-37541D01*
X53124Y-37384D01*
X53125Y-37215D01*
X53060Y-37059D01*
X52941Y-36939D01*
X52784Y-36875D01*
X52615Y-36874D01*
X52574Y-36891D01*
X52400Y-36717D01*
X52400Y-36601D01*
X52458Y-36660D01*
X52615Y-36724D01*
X52784Y-36725D01*
X52940Y-36660D01*
X53060Y-36541D01*
X53124Y-36384D01*
X53125Y-36215D01*
X53060Y-36059D01*
X52941Y-35939D01*
X52784Y-35875D01*
X52615Y-35874D01*
X52574Y-35891D01*
X52400Y-35717D01*
X52400Y-35601D01*
X52458Y-35660D01*
X52615Y-35724D01*
X52784Y-35725D01*
X52940Y-35660D01*
X53060Y-35541D01*
X53124Y-35384D01*
X53125Y-35215D01*
X53060Y-35059D01*
X52941Y-34939D01*
X52784Y-34875D01*
X52615Y-34874D01*
X52459Y-34939D01*
X52390Y-35008D01*
X52347Y-34964D01*
X52282Y-34921D01*
X52206Y-34906D01*
X52176Y-34906D01*
X52368Y-34714D01*
X52395Y-34724D01*
X52454Y-34725D01*
X53004Y-34725D01*
X53059Y-34702D01*
X53102Y-34660D01*
X53124Y-34604D01*
X53125Y-34545D01*
X53125Y-33995D01*
X53102Y-33940D01*
X53060Y-33897D01*
X53004Y-33875D01*
X52945Y-33874D01*
X52395Y-33874D01*
X52340Y-33897D01*
X52297Y-33939D01*
X52275Y-33995D01*
X52274Y-34054D01*
X52274Y-34242D01*
X51810Y-34706D01*
X51670Y-34706D01*
X51670Y-33439D01*
X51670Y-33026D01*
X51670Y-32966D01*
X51647Y-32911D01*
X51605Y-32869D01*
X51550Y-32846D01*
X51174Y-32846D01*
X51137Y-32884D01*
X51137Y-33183D01*
X51632Y-33183D01*
X51670Y-33145D01*
X51670Y-33026D01*
X51670Y-33439D01*
X51670Y-33320D01*
X51632Y-33283D01*
X51137Y-33283D01*
X51137Y-33581D01*
X51174Y-33619D01*
X51550Y-33619D01*
X51605Y-33596D01*
X51647Y-33554D01*
X51670Y-33499D01*
X51670Y-33439D01*
X51670Y-34706D01*
X49987Y-34706D01*
X49983Y-34707D01*
X49840Y-34707D01*
X49838Y-34703D01*
X49796Y-34660D01*
X49792Y-34659D01*
X49792Y-34620D01*
X49792Y-34478D01*
X49826Y-34444D01*
X49895Y-34430D01*
X49976Y-34376D01*
X50476Y-33876D01*
X50530Y-33795D01*
X50550Y-33700D01*
X50550Y-33688D01*
X50550Y-33577D01*
X50569Y-33596D01*
X50624Y-33619D01*
X50999Y-33619D01*
X51037Y-33581D01*
X51037Y-33283D01*
X51029Y-33283D01*
X51029Y-33183D01*
X51037Y-33183D01*
X51037Y-32884D01*
X50999Y-32846D01*
X50624Y-32846D01*
X50569Y-32869D01*
X50550Y-32889D01*
X50550Y-32753D01*
X50572Y-32731D01*
X50624Y-32753D01*
X50684Y-32753D01*
X51550Y-32753D01*
X51605Y-32730D01*
X51647Y-32688D01*
X51670Y-32633D01*
X51670Y-32573D01*
X51670Y-32101D01*
X51647Y-32045D01*
X51605Y-32003D01*
X51550Y-31980D01*
X51490Y-31980D01*
X50624Y-31980D01*
X50569Y-32003D01*
X50527Y-32045D01*
X50504Y-32100D01*
X50504Y-32132D01*
X50504Y-32132D01*
X50487Y-32135D01*
X50406Y-32190D01*
X50406Y-32190D01*
X50123Y-32473D01*
X50095Y-32514D01*
X50095Y-32160D01*
X50095Y-32100D01*
X50072Y-32045D01*
X50030Y-32003D01*
X49975Y-31980D01*
X49600Y-31980D01*
X49562Y-32018D01*
X49562Y-32316D01*
X50058Y-32316D01*
X50095Y-32279D01*
X50095Y-32160D01*
X50095Y-32514D01*
X50095Y-32514D01*
X50095Y-32454D01*
X50058Y-32416D01*
X49562Y-32416D01*
X49562Y-32715D01*
X49600Y-32753D01*
X49975Y-32753D01*
X50030Y-32730D01*
X50050Y-32710D01*
X50050Y-32889D01*
X50030Y-32869D01*
X49975Y-32846D01*
X49915Y-32846D01*
X49462Y-32846D01*
X49462Y-32715D01*
X49462Y-32416D01*
X49462Y-32316D01*
X49462Y-32018D01*
X49425Y-31980D01*
X49049Y-31980D01*
X48994Y-32003D01*
X48952Y-32045D01*
X48929Y-32100D01*
X48929Y-32160D01*
X48929Y-32279D01*
X48967Y-32316D01*
X49462Y-32316D01*
X49462Y-32416D01*
X48967Y-32416D01*
X48929Y-32454D01*
X48929Y-32573D01*
X48929Y-32633D01*
X48952Y-32688D01*
X48994Y-32730D01*
X49049Y-32753D01*
X49425Y-32753D01*
X49462Y-32715D01*
X49462Y-32846D01*
X49049Y-32846D01*
X48994Y-32869D01*
X48952Y-32911D01*
X48929Y-32966D01*
X48929Y-33026D01*
X48929Y-33498D01*
X48952Y-33554D01*
X48973Y-33574D01*
X48935Y-33574D01*
X48816Y-33624D01*
X48749Y-33690D01*
X48684Y-33624D01*
X48564Y-33575D01*
X48435Y-33574D01*
X48316Y-33624D01*
X48224Y-33715D01*
X48175Y-33835D01*
X48174Y-33964D01*
X48179Y-33974D01*
X48135Y-33974D01*
X48016Y-34024D01*
X47924Y-34115D01*
X47875Y-34235D01*
X47874Y-34364D01*
X47924Y-34483D01*
X48015Y-34575D01*
X48094Y-34608D01*
X48094Y-34707D01*
X48008Y-34707D01*
X47953Y-34729D01*
X47918Y-34764D01*
X47825Y-34671D01*
X47825Y-34420D01*
X47802Y-34365D01*
X47760Y-34322D01*
X47704Y-34300D01*
X47645Y-34299D01*
X47095Y-34299D01*
X47040Y-34322D01*
X46997Y-34364D01*
X46996Y-34368D01*
X46800Y-34171D01*
X46800Y-33895D01*
X46777Y-33840D01*
X46735Y-33797D01*
X46725Y-33793D01*
X46725Y-33600D01*
X46804Y-33600D01*
X46859Y-33577D01*
X46902Y-33535D01*
X46924Y-33479D01*
X46925Y-33420D01*
X46925Y-33070D01*
X46925Y-32729D01*
X46925Y-32320D01*
X46902Y-32265D01*
X46860Y-32222D01*
X46804Y-32200D01*
X46745Y-32199D01*
X46587Y-32200D01*
X46550Y-32237D01*
X46550Y-32475D01*
X46887Y-32475D01*
X46925Y-32437D01*
X46925Y-32320D01*
X46925Y-32729D01*
X46925Y-32612D01*
X46887Y-32575D01*
X46550Y-32575D01*
X46550Y-32812D01*
X46587Y-32850D01*
X46745Y-32850D01*
X46804Y-32849D01*
X46860Y-32827D01*
X46902Y-32784D01*
X46925Y-32729D01*
X46925Y-33070D01*
X46902Y-33015D01*
X46860Y-32972D01*
X46804Y-32950D01*
X46745Y-32949D01*
X46450Y-32949D01*
X46450Y-32812D01*
X46450Y-32575D01*
X46450Y-32475D01*
X46450Y-32237D01*
X46412Y-32200D01*
X46254Y-32199D01*
X46195Y-32200D01*
X46139Y-32222D01*
X46097Y-32265D01*
X46074Y-32320D01*
X46075Y-32437D01*
X46112Y-32475D01*
X46450Y-32475D01*
X46450Y-32575D01*
X46112Y-32575D01*
X46075Y-32612D01*
X46074Y-32729D01*
X46097Y-32784D01*
X46139Y-32827D01*
X46195Y-32849D01*
X46254Y-32850D01*
X46412Y-32850D01*
X46450Y-32812D01*
X46450Y-32949D01*
X46195Y-32949D01*
X46140Y-32972D01*
X46097Y-33014D01*
X46075Y-33070D01*
X46074Y-33129D01*
X46074Y-33479D01*
X46097Y-33534D01*
X46139Y-33577D01*
X46195Y-33599D01*
X46225Y-33600D01*
X46225Y-33793D01*
X46215Y-33797D01*
X46172Y-33839D01*
X46150Y-33895D01*
X46149Y-33954D01*
X46149Y-34504D01*
X46172Y-34559D01*
X46214Y-34602D01*
X46270Y-34624D01*
X46329Y-34625D01*
X46546Y-34625D01*
X46723Y-34801D01*
X46723Y-34801D01*
X46804Y-34855D01*
X46804Y-34855D01*
X46900Y-34875D01*
X46993Y-34875D01*
X46997Y-34884D01*
X47039Y-34927D01*
X47095Y-34949D01*
X47154Y-34950D01*
X47396Y-34950D01*
X47496Y-35049D01*
X47095Y-35049D01*
X47040Y-35072D01*
X46997Y-35114D01*
X46993Y-35125D01*
X46800Y-35125D01*
X46800Y-34995D01*
X46777Y-34940D01*
X46735Y-34897D01*
X46679Y-34875D01*
X46620Y-34874D01*
X46270Y-34874D01*
X46215Y-34897D01*
X46172Y-34939D01*
X46150Y-34995D01*
X46149Y-35054D01*
X46149Y-35604D01*
X46172Y-35659D01*
X46214Y-35702D01*
X46270Y-35724D01*
X46329Y-35725D01*
X46679Y-35725D01*
X46734Y-35702D01*
X46777Y-35660D01*
X46791Y-35625D01*
X46993Y-35625D01*
X46997Y-35634D01*
X47039Y-35677D01*
X47095Y-35699D01*
X47154Y-35700D01*
X47704Y-35700D01*
X47759Y-35677D01*
X47802Y-35635D01*
X47824Y-35579D01*
X47825Y-35520D01*
X47825Y-35500D01*
X47888Y-35500D01*
X47888Y-35575D01*
X47896Y-35595D01*
X47888Y-35614D01*
X47888Y-35674D01*
X47888Y-35772D01*
X47911Y-35827D01*
X47953Y-35870D01*
X48008Y-35892D01*
X48068Y-35892D01*
X48559Y-35892D01*
X48561Y-35896D01*
X48603Y-35939D01*
X48607Y-35940D01*
X48607Y-35979D01*
X48607Y-36058D01*
X48600Y-36093D01*
X48600Y-36546D01*
X48323Y-36823D01*
X48269Y-36904D01*
X48250Y-37000D01*
X48250Y-37396D01*
X48225Y-37421D01*
X48225Y-37329D01*
X48225Y-36920D01*
X48202Y-36865D01*
X48160Y-36822D01*
X48104Y-36800D01*
X48045Y-36799D01*
X47887Y-36800D01*
X47850Y-36837D01*
X47850Y-37075D01*
X48187Y-37075D01*
X48225Y-37037D01*
X48225Y-36920D01*
X48225Y-37329D01*
X48225Y-37212D01*
X48187Y-37175D01*
X47850Y-37175D01*
X47850Y-37412D01*
X47887Y-37450D01*
X48045Y-37450D01*
X48104Y-37449D01*
X48160Y-37427D01*
X48202Y-37384D01*
X48225Y-37329D01*
X48225Y-37421D01*
X48096Y-37550D01*
X48045Y-37549D01*
X47750Y-37549D01*
X47750Y-37412D01*
X47750Y-37175D01*
X47750Y-37075D01*
X47750Y-36837D01*
X47712Y-36800D01*
X47554Y-36799D01*
X47495Y-36800D01*
X47439Y-36822D01*
X47397Y-36865D01*
X47374Y-36920D01*
X47375Y-37037D01*
X47412Y-37075D01*
X47750Y-37075D01*
X47750Y-37175D01*
X47412Y-37175D01*
X47375Y-37212D01*
X47374Y-37329D01*
X47397Y-37384D01*
X47439Y-37427D01*
X47495Y-37449D01*
X47554Y-37450D01*
X47712Y-37450D01*
X47750Y-37412D01*
X47750Y-37549D01*
X47495Y-37549D01*
X47440Y-37572D01*
X47397Y-37614D01*
X47393Y-37625D01*
X47125Y-37625D01*
X47125Y-37329D01*
X47125Y-36920D01*
X47102Y-36865D01*
X47060Y-36822D01*
X47004Y-36800D01*
X46945Y-36799D01*
X46787Y-36800D01*
X46750Y-36837D01*
X46750Y-37075D01*
X47087Y-37075D01*
X47125Y-37037D01*
X47125Y-36920D01*
X47125Y-37329D01*
X47125Y-37212D01*
X47087Y-37175D01*
X46750Y-37175D01*
X46750Y-37412D01*
X46787Y-37450D01*
X46945Y-37450D01*
X47004Y-37449D01*
X47060Y-37427D01*
X47102Y-37384D01*
X47125Y-37329D01*
X47125Y-37625D01*
X47106Y-37625D01*
X47102Y-37615D01*
X47060Y-37572D01*
X47004Y-37550D01*
X46945Y-37549D01*
X46650Y-37549D01*
X46650Y-37412D01*
X46650Y-37175D01*
X46650Y-37075D01*
X46650Y-36837D01*
X46612Y-36800D01*
X46454Y-36799D01*
X46395Y-36800D01*
X46339Y-36822D01*
X46297Y-36865D01*
X46274Y-36920D01*
X46275Y-37037D01*
X46312Y-37075D01*
X46650Y-37075D01*
X46650Y-37175D01*
X46312Y-37175D01*
X46275Y-37212D01*
X46274Y-37329D01*
X46297Y-37384D01*
X46339Y-37427D01*
X46395Y-37449D01*
X46454Y-37450D01*
X46612Y-37450D01*
X46650Y-37412D01*
X46650Y-37549D01*
X46395Y-37549D01*
X46340Y-37572D01*
X46297Y-37614D01*
X46293Y-37625D01*
X46050Y-37625D01*
X46050Y-35545D01*
X46050Y-34995D01*
X46027Y-34940D01*
X45985Y-34897D01*
X45975Y-34893D01*
X45975Y-34606D01*
X45984Y-34602D01*
X46027Y-34560D01*
X46049Y-34504D01*
X46050Y-34445D01*
X46050Y-33895D01*
X46027Y-33840D01*
X45985Y-33797D01*
X45929Y-33775D01*
X45870Y-33774D01*
X45520Y-33774D01*
X45465Y-33797D01*
X45422Y-33839D01*
X45400Y-33895D01*
X45399Y-33954D01*
X45399Y-34504D01*
X45422Y-34559D01*
X45464Y-34602D01*
X45475Y-34606D01*
X45475Y-34893D01*
X45465Y-34897D01*
X45422Y-34939D01*
X45400Y-34995D01*
X45399Y-35050D01*
X45130Y-35050D01*
X45130Y-32351D01*
X45117Y-32183D01*
X45077Y-32087D01*
X45013Y-32057D01*
X44942Y-32128D01*
X44942Y-31986D01*
X44912Y-31922D01*
X44751Y-31869D01*
X44583Y-31882D01*
X44487Y-31922D01*
X44457Y-31986D01*
X44700Y-32229D01*
X44942Y-31986D01*
X44942Y-32128D01*
X44770Y-32300D01*
X45013Y-32542D01*
X45077Y-32512D01*
X45130Y-32351D01*
X45130Y-35050D01*
X45125Y-35050D01*
X45125Y-34670D01*
X45125Y-34320D01*
X45102Y-34265D01*
X45060Y-34222D01*
X45004Y-34200D01*
X44950Y-34199D01*
X44950Y-33725D01*
X45004Y-33725D01*
X45059Y-33702D01*
X45102Y-33660D01*
X45124Y-33604D01*
X45125Y-33545D01*
X45125Y-32995D01*
X45102Y-32940D01*
X45060Y-32897D01*
X45004Y-32875D01*
X44945Y-32874D01*
X44942Y-32874D01*
X44942Y-32613D01*
X44700Y-32370D01*
X44629Y-32441D01*
X44629Y-32300D01*
X44386Y-32057D01*
X44322Y-32087D01*
X44269Y-32248D01*
X44282Y-32416D01*
X44322Y-32512D01*
X44386Y-32542D01*
X44629Y-32300D01*
X44629Y-32441D01*
X44457Y-32613D01*
X44487Y-32677D01*
X44648Y-32730D01*
X44816Y-32717D01*
X44912Y-32677D01*
X44942Y-32613D01*
X44942Y-32874D01*
X44395Y-32874D01*
X44340Y-32897D01*
X44297Y-32939D01*
X44275Y-32995D01*
X44274Y-33054D01*
X44274Y-33604D01*
X44297Y-33659D01*
X44339Y-33702D01*
X44395Y-33724D01*
X44450Y-33725D01*
X44450Y-34199D01*
X44395Y-34199D01*
X44340Y-34222D01*
X44297Y-34264D01*
X44275Y-34320D01*
X44274Y-34379D01*
X44274Y-34729D01*
X44297Y-34784D01*
X44339Y-34827D01*
X44395Y-34849D01*
X44454Y-34850D01*
X45004Y-34850D01*
X45059Y-34827D01*
X45102Y-34785D01*
X45124Y-34729D01*
X45125Y-34670D01*
X45125Y-35050D01*
X45116Y-35050D01*
X45102Y-35015D01*
X45060Y-34972D01*
X45004Y-34950D01*
X44945Y-34949D01*
X44395Y-34949D01*
X44340Y-34972D01*
X44297Y-35014D01*
X44275Y-35070D01*
X44274Y-35129D01*
X44274Y-35479D01*
X44297Y-35534D01*
X44339Y-35577D01*
X44395Y-35599D01*
X44454Y-35600D01*
X45004Y-35600D01*
X45059Y-35577D01*
X45087Y-35550D01*
X45399Y-35550D01*
X45399Y-35604D01*
X45422Y-35659D01*
X45464Y-35702D01*
X45520Y-35724D01*
X45579Y-35725D01*
X45929Y-35725D01*
X45984Y-35702D01*
X46027Y-35660D01*
X46049Y-35604D01*
X46050Y-35545D01*
X46050Y-37625D01*
X46025Y-37625D01*
X46025Y-37329D01*
X46025Y-36920D01*
X46002Y-36865D01*
X45960Y-36822D01*
X45904Y-36800D01*
X45845Y-36799D01*
X45687Y-36800D01*
X45650Y-36837D01*
X45650Y-37075D01*
X45987Y-37075D01*
X46025Y-37037D01*
X46025Y-36920D01*
X46025Y-37329D01*
X46025Y-37212D01*
X45987Y-37175D01*
X45650Y-37175D01*
X45650Y-37412D01*
X45687Y-37450D01*
X45845Y-37450D01*
X45904Y-37449D01*
X45960Y-37427D01*
X46002Y-37384D01*
X46025Y-37329D01*
X46025Y-37625D01*
X46006Y-37625D01*
X46002Y-37615D01*
X45960Y-37572D01*
X45904Y-37550D01*
X45845Y-37549D01*
X45550Y-37549D01*
X45550Y-37412D01*
X45550Y-37175D01*
X45550Y-37075D01*
X45550Y-36837D01*
X45512Y-36800D01*
X45354Y-36799D01*
X45295Y-36800D01*
X45239Y-36822D01*
X45197Y-36865D01*
X45174Y-36920D01*
X45175Y-37037D01*
X45212Y-37075D01*
X45550Y-37075D01*
X45550Y-37175D01*
X45212Y-37175D01*
X45175Y-37212D01*
X45174Y-37329D01*
X45197Y-37384D01*
X45239Y-37427D01*
X45295Y-37449D01*
X45354Y-37450D01*
X45512Y-37450D01*
X45550Y-37412D01*
X45550Y-37549D01*
X45295Y-37549D01*
X45240Y-37572D01*
X45197Y-37614D01*
X45175Y-37670D01*
X45174Y-37729D01*
X45174Y-37946D01*
X44523Y-38598D01*
X44469Y-38679D01*
X44450Y-38775D01*
X44450Y-38949D01*
X44339Y-39058D01*
X44275Y-39215D01*
X44274Y-39384D01*
X44339Y-39540D01*
X44458Y-39660D01*
X44615Y-39724D01*
X44784Y-39725D01*
X44940Y-39660D01*
X45060Y-39541D01*
X45124Y-39384D01*
X45125Y-39215D01*
X45060Y-39059D01*
X44950Y-38948D01*
X44950Y-38878D01*
X45628Y-38200D01*
X45904Y-38200D01*
X45959Y-38177D01*
X46002Y-38135D01*
X46006Y-38125D01*
X46293Y-38125D01*
X46297Y-38134D01*
X46339Y-38177D01*
X46395Y-38199D01*
X46454Y-38200D01*
X47004Y-38200D01*
X47059Y-38177D01*
X47102Y-38135D01*
X47106Y-38125D01*
X47393Y-38125D01*
X47397Y-38134D01*
X47439Y-38177D01*
X47495Y-38199D01*
X47554Y-38200D01*
X48104Y-38200D01*
X48159Y-38177D01*
X48202Y-38135D01*
X48213Y-38107D01*
X48220Y-38105D01*
X48301Y-38051D01*
X48515Y-37838D01*
X48475Y-37935D01*
X48474Y-38042D01*
X47642Y-38874D01*
X47615Y-38874D01*
X47459Y-38939D01*
X47339Y-39058D01*
X47275Y-39215D01*
X47274Y-39384D01*
X47339Y-39540D01*
X47458Y-39660D01*
X47615Y-39724D01*
X47784Y-39725D01*
X47940Y-39660D01*
X48060Y-39541D01*
X48124Y-39384D01*
X48125Y-39215D01*
X48060Y-39059D01*
X48041Y-39040D01*
X48757Y-38324D01*
X48864Y-38325D01*
X48900Y-38310D01*
X48900Y-38817D01*
X48825Y-38891D01*
X48784Y-38875D01*
X48615Y-38874D01*
X48459Y-38939D01*
X48339Y-39058D01*
X48275Y-39215D01*
X48274Y-39384D01*
X48339Y-39540D01*
X48458Y-39660D01*
X48615Y-39724D01*
X48784Y-39725D01*
X48940Y-39660D01*
X49060Y-39541D01*
X49124Y-39384D01*
X49125Y-39215D01*
X49108Y-39174D01*
X49241Y-39041D01*
X49241Y-39041D01*
X49270Y-38998D01*
X49284Y-38976D01*
X49284Y-38976D01*
X49299Y-38900D01*
X49300Y-38900D01*
X49300Y-38710D01*
X49335Y-38724D01*
X49464Y-38725D01*
X49500Y-38710D01*
X49500Y-38922D01*
X49459Y-38939D01*
X49339Y-39058D01*
X49275Y-39215D01*
X49274Y-39384D01*
X49339Y-39540D01*
X49458Y-39660D01*
X49615Y-39724D01*
X49784Y-39725D01*
X49940Y-39660D01*
X50060Y-39541D01*
X50124Y-39384D01*
X50125Y-39215D01*
X50060Y-39059D01*
X49941Y-38939D01*
X49900Y-38922D01*
X49900Y-36800D01*
X49884Y-36723D01*
X49884Y-36723D01*
X49870Y-36701D01*
X49841Y-36658D01*
X49841Y-36658D01*
X49793Y-36610D01*
X49793Y-36087D01*
X49792Y-36083D01*
X49792Y-35940D01*
X49796Y-35939D01*
X49838Y-35896D01*
X49840Y-35892D01*
X49879Y-35892D01*
X49983Y-35892D01*
X49987Y-35893D01*
X51210Y-35893D01*
X51700Y-36382D01*
X51700Y-36689D01*
X51664Y-36675D01*
X51535Y-36674D01*
X51498Y-36690D01*
X51477Y-36640D01*
X51435Y-36597D01*
X51379Y-36575D01*
X51320Y-36574D01*
X50970Y-36574D01*
X50915Y-36597D01*
X50872Y-36639D01*
X50850Y-36695D01*
X50849Y-36754D01*
X50849Y-37304D01*
X50872Y-37359D01*
X50914Y-37402D01*
X50970Y-37424D01*
X51029Y-37425D01*
X51379Y-37425D01*
X51434Y-37402D01*
X51477Y-37360D01*
X51498Y-37309D01*
X51535Y-37324D01*
X51664Y-37325D01*
X51783Y-37275D01*
X51875Y-37184D01*
X51912Y-37095D01*
X52000Y-37182D01*
X52000Y-37800D01*
X52015Y-37876D01*
X52058Y-37941D01*
X52291Y-38174D01*
X52275Y-38215D01*
X52274Y-38384D01*
X52280Y-38397D01*
X51924Y-38042D01*
X51925Y-37935D01*
X51875Y-37816D01*
X51784Y-37724D01*
X51664Y-37675D01*
X51535Y-37674D01*
X51498Y-37690D01*
X51477Y-37640D01*
X51435Y-37597D01*
X51379Y-37575D01*
X51320Y-37574D01*
X50970Y-37574D01*
X50915Y-37597D01*
X50872Y-37639D01*
X50850Y-37695D01*
X50849Y-37754D01*
X50849Y-38304D01*
X50872Y-38359D01*
X50914Y-38402D01*
X50970Y-38424D01*
X51029Y-38425D01*
X51379Y-38425D01*
X51434Y-38402D01*
X51477Y-38360D01*
X51498Y-38309D01*
X51535Y-38324D01*
X51642Y-38325D01*
X52358Y-39040D01*
X52339Y-39058D01*
X52275Y-39215D01*
X52274Y-39384D01*
X52339Y-39540D01*
X52458Y-39660D01*
X52615Y-39724D01*
X52784Y-39725D01*
X52940Y-39660D01*
X53060Y-39541D01*
X53124Y-39384D01*
X53125Y-39215D01*
X53125Y-39950D01*
X51125Y-39950D01*
X51125Y-39545D01*
X51125Y-38995D01*
X51102Y-38940D01*
X51060Y-38897D01*
X51004Y-38875D01*
X50945Y-38874D01*
X50750Y-38874D01*
X50750Y-38245D01*
X50750Y-37754D01*
X50750Y-37245D01*
X50750Y-36754D01*
X50749Y-36695D01*
X50727Y-36639D01*
X50684Y-36597D01*
X50629Y-36574D01*
X50512Y-36575D01*
X50475Y-36612D01*
X50475Y-36950D01*
X50712Y-36950D01*
X50750Y-36912D01*
X50750Y-36754D01*
X50750Y-37245D01*
X50750Y-37087D01*
X50712Y-37050D01*
X50475Y-37050D01*
X50475Y-37387D01*
X50512Y-37425D01*
X50629Y-37425D01*
X50684Y-37402D01*
X50727Y-37360D01*
X50749Y-37304D01*
X50750Y-37245D01*
X50750Y-37754D01*
X50749Y-37695D01*
X50727Y-37639D01*
X50684Y-37597D01*
X50629Y-37574D01*
X50512Y-37575D01*
X50475Y-37612D01*
X50475Y-37950D01*
X50712Y-37950D01*
X50750Y-37912D01*
X50750Y-37754D01*
X50750Y-38245D01*
X50750Y-38087D01*
X50712Y-38050D01*
X50475Y-38050D01*
X50475Y-38387D01*
X50512Y-38425D01*
X50629Y-38425D01*
X50684Y-38402D01*
X50727Y-38360D01*
X50749Y-38304D01*
X50750Y-38245D01*
X50750Y-38874D01*
X50395Y-38874D01*
X50375Y-38883D01*
X50375Y-38387D01*
X50375Y-38050D01*
X50375Y-37950D01*
X50375Y-37612D01*
X50375Y-37387D01*
X50375Y-37050D01*
X50375Y-36950D01*
X50375Y-36612D01*
X50337Y-36575D01*
X50220Y-36574D01*
X50165Y-36597D01*
X50122Y-36639D01*
X50100Y-36695D01*
X50099Y-36754D01*
X50100Y-36912D01*
X50137Y-36950D01*
X50375Y-36950D01*
X50375Y-37050D01*
X50137Y-37050D01*
X50100Y-37087D01*
X50099Y-37245D01*
X50100Y-37304D01*
X50122Y-37360D01*
X50165Y-37402D01*
X50220Y-37425D01*
X50337Y-37425D01*
X50375Y-37387D01*
X50375Y-37612D01*
X50337Y-37575D01*
X50220Y-37574D01*
X50165Y-37597D01*
X50122Y-37639D01*
X50100Y-37695D01*
X50099Y-37754D01*
X50100Y-37912D01*
X50137Y-37950D01*
X50375Y-37950D01*
X50375Y-38050D01*
X50137Y-38050D01*
X50100Y-38087D01*
X50099Y-38245D01*
X50100Y-38304D01*
X50122Y-38360D01*
X50165Y-38402D01*
X50220Y-38425D01*
X50337Y-38425D01*
X50375Y-38387D01*
X50375Y-38883D01*
X50340Y-38897D01*
X50297Y-38939D01*
X50275Y-38995D01*
X50274Y-39054D01*
X50274Y-39604D01*
X50297Y-39659D01*
X50339Y-39702D01*
X50395Y-39724D01*
X50454Y-39725D01*
X51004Y-39725D01*
X51059Y-39702D01*
X51102Y-39660D01*
X51124Y-39604D01*
X51125Y-39545D01*
X51125Y-39950D01*
X46125Y-39950D01*
X46125Y-39545D01*
X46125Y-39054D01*
X46124Y-38995D01*
X46102Y-38939D01*
X46059Y-38897D01*
X46004Y-38874D01*
X45787Y-38875D01*
X45750Y-38912D01*
X45750Y-39250D01*
X46087Y-39250D01*
X46125Y-39212D01*
X46125Y-39054D01*
X46125Y-39545D01*
X46125Y-39387D01*
X46087Y-39350D01*
X45750Y-39350D01*
X45750Y-39687D01*
X45787Y-39725D01*
X46004Y-39725D01*
X46059Y-39702D01*
X46102Y-39660D01*
X46124Y-39604D01*
X46125Y-39545D01*
X46125Y-39950D01*
X45650Y-39950D01*
X45650Y-39687D01*
X45650Y-39350D01*
X45650Y-39250D01*
X45650Y-38912D01*
X45612Y-38875D01*
X45395Y-38874D01*
X45340Y-38897D01*
X45297Y-38939D01*
X45275Y-38995D01*
X45274Y-39054D01*
X45275Y-39212D01*
X45312Y-39250D01*
X45650Y-39250D01*
X45650Y-39350D01*
X45312Y-39350D01*
X45275Y-39387D01*
X45274Y-39545D01*
X45275Y-39604D01*
X45297Y-39660D01*
X45340Y-39702D01*
X45395Y-39725D01*
X45612Y-39725D01*
X45650Y-39687D01*
X45650Y-39950D01*
X44050Y-39950D01*
X44050Y-31650D01*
X53350Y-31650D01*
X53350Y-39950D01*
X53350Y-39950D01*
G37*
G54D20*
X53350Y-39950D02*
X53125Y-39950D01*
X53125Y-39215D01*
X53060Y-39059D01*
X52941Y-38939D01*
X52784Y-38875D01*
X52757Y-38875D01*
X52602Y-38719D01*
X52615Y-38724D01*
X52784Y-38725D01*
X52940Y-38660D01*
X53060Y-38541D01*
X53124Y-38384D01*
X53125Y-38215D01*
X53060Y-38059D01*
X52941Y-37939D01*
X52784Y-37875D01*
X52615Y-37874D01*
X52574Y-37891D01*
X52400Y-37717D01*
X52400Y-37601D01*
X52458Y-37660D01*
X52615Y-37724D01*
X52784Y-37725D01*
X52940Y-37660D01*
X53060Y-37541D01*
X53124Y-37384D01*
X53125Y-37215D01*
X53060Y-37059D01*
X52941Y-36939D01*
X52784Y-36875D01*
X52615Y-36874D01*
X52574Y-36891D01*
X52400Y-36717D01*
X52400Y-36601D01*
X52458Y-36660D01*
X52615Y-36724D01*
X52784Y-36725D01*
X52940Y-36660D01*
X53060Y-36541D01*
X53124Y-36384D01*
X53125Y-36215D01*
X53060Y-36059D01*
X52941Y-35939D01*
X52784Y-35875D01*
X52615Y-35874D01*
X52574Y-35891D01*
X52400Y-35717D01*
X52400Y-35601D01*
X52458Y-35660D01*
X52615Y-35724D01*
X52784Y-35725D01*
X52940Y-35660D01*
X53060Y-35541D01*
X53124Y-35384D01*
X53125Y-35215D01*
X53060Y-35059D01*
X52941Y-34939D01*
X52784Y-34875D01*
X52615Y-34874D01*
X52459Y-34939D01*
X52390Y-35008D01*
X52347Y-34964D01*
X52282Y-34921D01*
X52206Y-34906D01*
X52176Y-34906D01*
X52368Y-34714D01*
X52395Y-34724D01*
X52454Y-34725D01*
X53004Y-34725D01*
X53059Y-34702D01*
X53102Y-34660D01*
X53124Y-34604D01*
X53125Y-34545D01*
X53125Y-33995D01*
X53102Y-33940D01*
X53060Y-33897D01*
X53004Y-33875D01*
X52945Y-33874D01*
X52395Y-33874D01*
X52340Y-33897D01*
X52297Y-33939D01*
X52275Y-33995D01*
X52274Y-34054D01*
X52274Y-34242D01*
X51810Y-34706D01*
X51670Y-34706D01*
X51670Y-33439D01*
X51670Y-33026D01*
X51670Y-32966D01*
X51647Y-32911D01*
X51605Y-32869D01*
X51550Y-32846D01*
X51174Y-32846D01*
X51137Y-32884D01*
X51137Y-33183D01*
X51632Y-33183D01*
X51670Y-33145D01*
X51670Y-33026D01*
X51670Y-33439D01*
X51670Y-33320D01*
X51632Y-33283D01*
X51137Y-33283D01*
X51137Y-33581D01*
X51174Y-33619D01*
X51550Y-33619D01*
X51605Y-33596D01*
X51647Y-33554D01*
X51670Y-33499D01*
X51670Y-33439D01*
X51670Y-34706D01*
X49987Y-34706D01*
X49983Y-34707D01*
X49840Y-34707D01*
X49838Y-34703D01*
X49796Y-34660D01*
X49792Y-34659D01*
X49792Y-34620D01*
X49792Y-34478D01*
X49826Y-34444D01*
X49895Y-34430D01*
X49976Y-34376D01*
X50476Y-33876D01*
X50530Y-33795D01*
X50550Y-33700D01*
X50550Y-33688D01*
X50550Y-33577D01*
X50569Y-33596D01*
X50624Y-33619D01*
X50999Y-33619D01*
X51037Y-33581D01*
X51037Y-33283D01*
X51029Y-33283D01*
X51029Y-33183D01*
X51037Y-33183D01*
X51037Y-32884D01*
X50999Y-32846D01*
X50624Y-32846D01*
X50569Y-32869D01*
X50550Y-32889D01*
X50550Y-32753D01*
X50572Y-32731D01*
X50624Y-32753D01*
X50684Y-32753D01*
X51550Y-32753D01*
X51605Y-32730D01*
X51647Y-32688D01*
X51670Y-32633D01*
X51670Y-32573D01*
X51670Y-32101D01*
X51647Y-32045D01*
X51605Y-32003D01*
X51550Y-31980D01*
X51490Y-31980D01*
X50624Y-31980D01*
X50569Y-32003D01*
X50527Y-32045D01*
X50504Y-32100D01*
X50504Y-32132D01*
X50504Y-32132D01*
X50487Y-32135D01*
X50406Y-32190D01*
X50406Y-32190D01*
X50123Y-32473D01*
X50095Y-32514D01*
X50095Y-32160D01*
X50095Y-32100D01*
X50072Y-32045D01*
X50030Y-32003D01*
X49975Y-31980D01*
X49600Y-31980D01*
X49562Y-32018D01*
X49562Y-32316D01*
X50058Y-32316D01*
X50095Y-32279D01*
X50095Y-32160D01*
X50095Y-32514D01*
X50095Y-32514D01*
X50095Y-32454D01*
X50058Y-32416D01*
X49562Y-32416D01*
X49562Y-32715D01*
X49600Y-32753D01*
X49975Y-32753D01*
X50030Y-32730D01*
X50050Y-32710D01*
X50050Y-32889D01*
X50030Y-32869D01*
X49975Y-32846D01*
X49915Y-32846D01*
X49462Y-32846D01*
X49462Y-32715D01*
X49462Y-32416D01*
X49462Y-32316D01*
X49462Y-32018D01*
X49425Y-31980D01*
X49049Y-31980D01*
X48994Y-32003D01*
X48952Y-32045D01*
X48929Y-32100D01*
X48929Y-32160D01*
X48929Y-32279D01*
X48967Y-32316D01*
X49462Y-32316D01*
X49462Y-32416D01*
X48967Y-32416D01*
X48929Y-32454D01*
X48929Y-32573D01*
X48929Y-32633D01*
X48952Y-32688D01*
X48994Y-32730D01*
X49049Y-32753D01*
X49425Y-32753D01*
X49462Y-32715D01*
X49462Y-32846D01*
X49049Y-32846D01*
X48994Y-32869D01*
X48952Y-32911D01*
X48929Y-32966D01*
X48929Y-33026D01*
X48929Y-33498D01*
X48952Y-33554D01*
X48973Y-33574D01*
X48935Y-33574D01*
X48816Y-33624D01*
X48749Y-33690D01*
X48684Y-33624D01*
X48564Y-33575D01*
X48435Y-33574D01*
X48316Y-33624D01*
X48224Y-33715D01*
X48175Y-33835D01*
X48174Y-33964D01*
X48179Y-33974D01*
X48135Y-33974D01*
X48016Y-34024D01*
X47924Y-34115D01*
X47875Y-34235D01*
X47874Y-34364D01*
X47924Y-34483D01*
X48015Y-34575D01*
X48094Y-34608D01*
X48094Y-34707D01*
X48008Y-34707D01*
X47953Y-34729D01*
X47918Y-34764D01*
X47825Y-34671D01*
X47825Y-34420D01*
X47802Y-34365D01*
X47760Y-34322D01*
X47704Y-34300D01*
X47645Y-34299D01*
X47095Y-34299D01*
X47040Y-34322D01*
X46997Y-34364D01*
X46996Y-34368D01*
X46800Y-34171D01*
X46800Y-33895D01*
X46777Y-33840D01*
X46735Y-33797D01*
X46725Y-33793D01*
X46725Y-33600D01*
X46804Y-33600D01*
X46859Y-33577D01*
X46902Y-33535D01*
X46924Y-33479D01*
X46925Y-33420D01*
X46925Y-33070D01*
X46925Y-32729D01*
X46925Y-32320D01*
X46902Y-32265D01*
X46860Y-32222D01*
X46804Y-32200D01*
X46745Y-32199D01*
X46587Y-32200D01*
X46550Y-32237D01*
X46550Y-32475D01*
X46887Y-32475D01*
X46925Y-32437D01*
X46925Y-32320D01*
X46925Y-32729D01*
X46925Y-32612D01*
X46887Y-32575D01*
X46550Y-32575D01*
X46550Y-32812D01*
X46587Y-32850D01*
X46745Y-32850D01*
X46804Y-32849D01*
X46860Y-32827D01*
X46902Y-32784D01*
X46925Y-32729D01*
X46925Y-33070D01*
X46902Y-33015D01*
X46860Y-32972D01*
X46804Y-32950D01*
X46745Y-32949D01*
X46450Y-32949D01*
X46450Y-32812D01*
X46450Y-32575D01*
X46450Y-32475D01*
X46450Y-32237D01*
X46412Y-32200D01*
X46254Y-32199D01*
X46195Y-32200D01*
X46139Y-32222D01*
X46097Y-32265D01*
X46074Y-32320D01*
X46075Y-32437D01*
X46112Y-32475D01*
X46450Y-32475D01*
X46450Y-32575D01*
X46112Y-32575D01*
X46075Y-32612D01*
X46074Y-32729D01*
X46097Y-32784D01*
X46139Y-32827D01*
X46195Y-32849D01*
X46254Y-32850D01*
X46412Y-32850D01*
X46450Y-32812D01*
X46450Y-32949D01*
X46195Y-32949D01*
X46140Y-32972D01*
X46097Y-33014D01*
X46075Y-33070D01*
X46074Y-33129D01*
X46074Y-33479D01*
X46097Y-33534D01*
X46139Y-33577D01*
X46195Y-33599D01*
X46225Y-33600D01*
X46225Y-33793D01*
X46215Y-33797D01*
X46172Y-33839D01*
X46150Y-33895D01*
X46149Y-33954D01*
X46149Y-34504D01*
X46172Y-34559D01*
X46214Y-34602D01*
X46270Y-34624D01*
X46329Y-34625D01*
X46546Y-34625D01*
X46723Y-34801D01*
X46723Y-34801D01*
X46804Y-34855D01*
X46804Y-34855D01*
X46900Y-34875D01*
X46993Y-34875D01*
X46997Y-34884D01*
X47039Y-34927D01*
X47095Y-34949D01*
X47154Y-34950D01*
X47396Y-34950D01*
X47496Y-35049D01*
X47095Y-35049D01*
X47040Y-35072D01*
X46997Y-35114D01*
X46993Y-35125D01*
X46800Y-35125D01*
X46800Y-34995D01*
X46777Y-34940D01*
X46735Y-34897D01*
X46679Y-34875D01*
X46620Y-34874D01*
X46270Y-34874D01*
X46215Y-34897D01*
X46172Y-34939D01*
X46150Y-34995D01*
X46149Y-35054D01*
X46149Y-35604D01*
X46172Y-35659D01*
X46214Y-35702D01*
X46270Y-35724D01*
X46329Y-35725D01*
X46679Y-35725D01*
X46734Y-35702D01*
X46777Y-35660D01*
X46791Y-35625D01*
X46993Y-35625D01*
X46997Y-35634D01*
X47039Y-35677D01*
X47095Y-35699D01*
X47154Y-35700D01*
X47704Y-35700D01*
X47759Y-35677D01*
X47802Y-35635D01*
X47824Y-35579D01*
X47825Y-35520D01*
X47825Y-35500D01*
X47888Y-35500D01*
X47888Y-35575D01*
X47896Y-35595D01*
X47888Y-35614D01*
X47888Y-35674D01*
X47888Y-35772D01*
X47911Y-35827D01*
X47953Y-35870D01*
X48008Y-35892D01*
X48068Y-35892D01*
X48559Y-35892D01*
X48561Y-35896D01*
X48603Y-35939D01*
X48607Y-35940D01*
X48607Y-35979D01*
X48607Y-36058D01*
X48600Y-36093D01*
X48600Y-36546D01*
X48323Y-36823D01*
X48269Y-36904D01*
X48250Y-37000D01*
X48250Y-37396D01*
X48225Y-37421D01*
X48225Y-37329D01*
X48225Y-36920D01*
X48202Y-36865D01*
X48160Y-36822D01*
X48104Y-36800D01*
X48045Y-36799D01*
X47887Y-36800D01*
X47850Y-36837D01*
X47850Y-37075D01*
X48187Y-37075D01*
X48225Y-37037D01*
X48225Y-36920D01*
X48225Y-37329D01*
X48225Y-37212D01*
X48187Y-37175D01*
X47850Y-37175D01*
X47850Y-37412D01*
X47887Y-37450D01*
X48045Y-37450D01*
X48104Y-37449D01*
X48160Y-37427D01*
X48202Y-37384D01*
X48225Y-37329D01*
X48225Y-37421D01*
X48096Y-37550D01*
X48045Y-37549D01*
X47750Y-37549D01*
X47750Y-37412D01*
X47750Y-37175D01*
X47750Y-37075D01*
X47750Y-36837D01*
X47712Y-36800D01*
X47554Y-36799D01*
X47495Y-36800D01*
X47439Y-36822D01*
X47397Y-36865D01*
X47374Y-36920D01*
X47375Y-37037D01*
X47412Y-37075D01*
X47750Y-37075D01*
X47750Y-37175D01*
X47412Y-37175D01*
X47375Y-37212D01*
X47374Y-37329D01*
X47397Y-37384D01*
X47439Y-37427D01*
X47495Y-37449D01*
X47554Y-37450D01*
X47712Y-37450D01*
X47750Y-37412D01*
X47750Y-37549D01*
X47495Y-37549D01*
X47440Y-37572D01*
X47397Y-37614D01*
X47393Y-37625D01*
X47125Y-37625D01*
X47125Y-37329D01*
X47125Y-36920D01*
X47102Y-36865D01*
X47060Y-36822D01*
X47004Y-36800D01*
X46945Y-36799D01*
X46787Y-36800D01*
X46750Y-36837D01*
X46750Y-37075D01*
X47087Y-37075D01*
X47125Y-37037D01*
X47125Y-36920D01*
X47125Y-37329D01*
X47125Y-37212D01*
X47087Y-37175D01*
X46750Y-37175D01*
X46750Y-37412D01*
X46787Y-37450D01*
X46945Y-37450D01*
X47004Y-37449D01*
X47060Y-37427D01*
X47102Y-37384D01*
X47125Y-37329D01*
X47125Y-37625D01*
X47106Y-37625D01*
X47102Y-37615D01*
X47060Y-37572D01*
X47004Y-37550D01*
X46945Y-37549D01*
X46650Y-37549D01*
X46650Y-37412D01*
X46650Y-37175D01*
X46650Y-37075D01*
X46650Y-36837D01*
X46612Y-36800D01*
X46454Y-36799D01*
X46395Y-36800D01*
X46339Y-36822D01*
X46297Y-36865D01*
X46274Y-36920D01*
X46275Y-37037D01*
X46312Y-37075D01*
X46650Y-37075D01*
X46650Y-37175D01*
X46312Y-37175D01*
X46275Y-37212D01*
X46274Y-37329D01*
X46297Y-37384D01*
X46339Y-37427D01*
X46395Y-37449D01*
X46454Y-37450D01*
X46612Y-37450D01*
X46650Y-37412D01*
X46650Y-37549D01*
X46395Y-37549D01*
X46340Y-37572D01*
X46297Y-37614D01*
X46293Y-37625D01*
X46050Y-37625D01*
X46050Y-35545D01*
X46050Y-34995D01*
X46027Y-34940D01*
X45985Y-34897D01*
X45975Y-34893D01*
X45975Y-34606D01*
X45984Y-34602D01*
X46027Y-34560D01*
X46049Y-34504D01*
X46050Y-34445D01*
X46050Y-33895D01*
X46027Y-33840D01*
X45985Y-33797D01*
X45929Y-33775D01*
X45870Y-33774D01*
X45520Y-33774D01*
X45465Y-33797D01*
X45422Y-33839D01*
X45400Y-33895D01*
X45399Y-33954D01*
X45399Y-34504D01*
X45422Y-34559D01*
X45464Y-34602D01*
X45475Y-34606D01*
X45475Y-34893D01*
X45465Y-34897D01*
X45422Y-34939D01*
X45400Y-34995D01*
X45399Y-35050D01*
X45130Y-35050D01*
X45130Y-32351D01*
X45117Y-32183D01*
X45077Y-32087D01*
X45013Y-32057D01*
X44942Y-32128D01*
X44942Y-31986D01*
X44912Y-31922D01*
X44751Y-31869D01*
X44583Y-31882D01*
X44487Y-31922D01*
X44457Y-31986D01*
X44700Y-32229D01*
X44942Y-31986D01*
X44942Y-32128D01*
X44770Y-32300D01*
X45013Y-32542D01*
X45077Y-32512D01*
X45130Y-32351D01*
X45130Y-35050D01*
X45125Y-35050D01*
X45125Y-34670D01*
X45125Y-34320D01*
X45102Y-34265D01*
X45060Y-34222D01*
X45004Y-34200D01*
X44950Y-34199D01*
X44950Y-33725D01*
X45004Y-33725D01*
X45059Y-33702D01*
X45102Y-33660D01*
X45124Y-33604D01*
X45125Y-33545D01*
X45125Y-32995D01*
X45102Y-32940D01*
X45060Y-32897D01*
X45004Y-32875D01*
X44945Y-32874D01*
X44942Y-32874D01*
X44942Y-32613D01*
X44700Y-32370D01*
X44629Y-32441D01*
X44629Y-32300D01*
X44386Y-32057D01*
X44322Y-32087D01*
X44269Y-32248D01*
X44282Y-32416D01*
X44322Y-32512D01*
X44386Y-32542D01*
X44629Y-32300D01*
X44629Y-32441D01*
X44457Y-32613D01*
X44487Y-32677D01*
X44648Y-32730D01*
X44816Y-32717D01*
X44912Y-32677D01*
X44942Y-32613D01*
X44942Y-32874D01*
X44395Y-32874D01*
X44340Y-32897D01*
X44297Y-32939D01*
X44275Y-32995D01*
X44274Y-33054D01*
X44274Y-33604D01*
X44297Y-33659D01*
X44339Y-33702D01*
X44395Y-33724D01*
X44450Y-33725D01*
X44450Y-34199D01*
X44395Y-34199D01*
X44340Y-34222D01*
X44297Y-34264D01*
X44275Y-34320D01*
X44274Y-34379D01*
X44274Y-34729D01*
X44297Y-34784D01*
X44339Y-34827D01*
X44395Y-34849D01*
X44454Y-34850D01*
X45004Y-34850D01*
X45059Y-34827D01*
X45102Y-34785D01*
X45124Y-34729D01*
X45125Y-34670D01*
X45125Y-35050D01*
X45116Y-35050D01*
X45102Y-35015D01*
X45060Y-34972D01*
X45004Y-34950D01*
X44945Y-34949D01*
X44395Y-34949D01*
X44340Y-34972D01*
X44297Y-35014D01*
X44275Y-35070D01*
X44274Y-35129D01*
X44274Y-35479D01*
X44297Y-35534D01*
X44339Y-35577D01*
X44395Y-35599D01*
X44454Y-35600D01*
X45004Y-35600D01*
X45059Y-35577D01*
X45087Y-35550D01*
X45399Y-35550D01*
X45399Y-35604D01*
X45422Y-35659D01*
X45464Y-35702D01*
X45520Y-35724D01*
X45579Y-35725D01*
X45929Y-35725D01*
X45984Y-35702D01*
X46027Y-35660D01*
X46049Y-35604D01*
X46050Y-35545D01*
X46050Y-37625D01*
X46025Y-37625D01*
X46025Y-37329D01*
X46025Y-36920D01*
X46002Y-36865D01*
X45960Y-36822D01*
X45904Y-36800D01*
X45845Y-36799D01*
X45687Y-36800D01*
X45650Y-36837D01*
X45650Y-37075D01*
X45987Y-37075D01*
X46025Y-37037D01*
X46025Y-36920D01*
X46025Y-37329D01*
X46025Y-37212D01*
X45987Y-37175D01*
X45650Y-37175D01*
X45650Y-37412D01*
X45687Y-37450D01*
X45845Y-37450D01*
X45904Y-37449D01*
X45960Y-37427D01*
X46002Y-37384D01*
X46025Y-37329D01*
X46025Y-37625D01*
X46006Y-37625D01*
X46002Y-37615D01*
X45960Y-37572D01*
X45904Y-37550D01*
X45845Y-37549D01*
X45550Y-37549D01*
X45550Y-37412D01*
X45550Y-37175D01*
X45550Y-37075D01*
X45550Y-36837D01*
X45512Y-36800D01*
X45354Y-36799D01*
X45295Y-36800D01*
X45239Y-36822D01*
X45197Y-36865D01*
X45174Y-36920D01*
X45175Y-37037D01*
X45212Y-37075D01*
X45550Y-37075D01*
X45550Y-37175D01*
X45212Y-37175D01*
X45175Y-37212D01*
X45174Y-37329D01*
X45197Y-37384D01*
X45239Y-37427D01*
X45295Y-37449D01*
X45354Y-37450D01*
X45512Y-37450D01*
X45550Y-37412D01*
X45550Y-37549D01*
X45295Y-37549D01*
X45240Y-37572D01*
X45197Y-37614D01*
X45175Y-37670D01*
X45174Y-37729D01*
X45174Y-37946D01*
X44523Y-38598D01*
X44469Y-38679D01*
X44450Y-38775D01*
X44450Y-38949D01*
X44339Y-39058D01*
X44275Y-39215D01*
X44274Y-39384D01*
X44339Y-39540D01*
X44458Y-39660D01*
X44615Y-39724D01*
X44784Y-39725D01*
X44940Y-39660D01*
X45060Y-39541D01*
X45124Y-39384D01*
X45125Y-39215D01*
X45060Y-39059D01*
X44950Y-38948D01*
X44950Y-38878D01*
X45628Y-38200D01*
X45904Y-38200D01*
X45959Y-38177D01*
X46002Y-38135D01*
X46006Y-38125D01*
X46293Y-38125D01*
X46297Y-38134D01*
X46339Y-38177D01*
X46395Y-38199D01*
X46454Y-38200D01*
X47004Y-38200D01*
X47059Y-38177D01*
X47102Y-38135D01*
X47106Y-38125D01*
X47393Y-38125D01*
X47397Y-38134D01*
X47439Y-38177D01*
X47495Y-38199D01*
X47554Y-38200D01*
X48104Y-38200D01*
X48159Y-38177D01*
X48202Y-38135D01*
X48213Y-38107D01*
X48220Y-38105D01*
X48301Y-38051D01*
X48515Y-37838D01*
X48475Y-37935D01*
X48474Y-38042D01*
X47642Y-38874D01*
X47615Y-38874D01*
X47459Y-38939D01*
X47339Y-39058D01*
X47275Y-39215D01*
X47274Y-39384D01*
X47339Y-39540D01*
X47458Y-39660D01*
X47615Y-39724D01*
X47784Y-39725D01*
X47940Y-39660D01*
X48060Y-39541D01*
X48124Y-39384D01*
X48125Y-39215D01*
X48060Y-39059D01*
X48041Y-39040D01*
X48757Y-38324D01*
X48864Y-38325D01*
X48900Y-38310D01*
X48900Y-38817D01*
X48825Y-38891D01*
X48784Y-38875D01*
X48615Y-38874D01*
X48459Y-38939D01*
X48339Y-39058D01*
X48275Y-39215D01*
X48274Y-39384D01*
X48339Y-39540D01*
X48458Y-39660D01*
X48615Y-39724D01*
X48784Y-39725D01*
X48940Y-39660D01*
X49060Y-39541D01*
X49124Y-39384D01*
X49125Y-39215D01*
X49108Y-39174D01*
X49241Y-39041D01*
X49241Y-39041D01*
X49270Y-38998D01*
X49284Y-38976D01*
X49284Y-38976D01*
X49299Y-38900D01*
X49300Y-38900D01*
X49300Y-38710D01*
X49335Y-38724D01*
X49464Y-38725D01*
X49500Y-38710D01*
X49500Y-38922D01*
X49459Y-38939D01*
X49339Y-39058D01*
X49275Y-39215D01*
X49274Y-39384D01*
X49339Y-39540D01*
X49458Y-39660D01*
X49615Y-39724D01*
X49784Y-39725D01*
X49940Y-39660D01*
X50060Y-39541D01*
X50124Y-39384D01*
X50125Y-39215D01*
X50060Y-39059D01*
X49941Y-38939D01*
X49900Y-38922D01*
X49900Y-36800D01*
X49884Y-36723D01*
X49884Y-36723D01*
X49870Y-36701D01*
X49841Y-36658D01*
X49841Y-36658D01*
X49793Y-36610D01*
X49793Y-36087D01*
X49792Y-36083D01*
X49792Y-35940D01*
X49796Y-35939D01*
X49838Y-35896D01*
X49840Y-35892D01*
X49879Y-35892D01*
X49983Y-35892D01*
X49987Y-35893D01*
X51210Y-35893D01*
X51700Y-36382D01*
X51700Y-36689D01*
X51664Y-36675D01*
X51535Y-36674D01*
X51498Y-36690D01*
X51477Y-36640D01*
X51435Y-36597D01*
X51379Y-36575D01*
X51320Y-36574D01*
X50970Y-36574D01*
X50915Y-36597D01*
X50872Y-36639D01*
X50850Y-36695D01*
X50849Y-36754D01*
X50849Y-37304D01*
X50872Y-37359D01*
X50914Y-37402D01*
X50970Y-37424D01*
X51029Y-37425D01*
X51379Y-37425D01*
X51434Y-37402D01*
X51477Y-37360D01*
X51498Y-37309D01*
X51535Y-37324D01*
X51664Y-37325D01*
X51783Y-37275D01*
X51875Y-37184D01*
X51912Y-37095D01*
X52000Y-37182D01*
X52000Y-37800D01*
X52015Y-37876D01*
X52058Y-37941D01*
X52291Y-38174D01*
X52275Y-38215D01*
X52274Y-38384D01*
X52280Y-38397D01*
X51924Y-38042D01*
X51925Y-37935D01*
X51875Y-37816D01*
X51784Y-37724D01*
X51664Y-37675D01*
X51535Y-37674D01*
X51498Y-37690D01*
X51477Y-37640D01*
X51435Y-37597D01*
X51379Y-37575D01*
X51320Y-37574D01*
X50970Y-37574D01*
X50915Y-37597D01*
X50872Y-37639D01*
X50850Y-37695D01*
X50849Y-37754D01*
X50849Y-38304D01*
X50872Y-38359D01*
X50914Y-38402D01*
X50970Y-38424D01*
X51029Y-38425D01*
X51379Y-38425D01*
X51434Y-38402D01*
X51477Y-38360D01*
X51498Y-38309D01*
X51535Y-38324D01*
X51642Y-38325D01*
X52358Y-39040D01*
X52339Y-39058D01*
X52275Y-39215D01*
X52274Y-39384D01*
X52339Y-39540D01*
X52458Y-39660D01*
X52615Y-39724D01*
X52784Y-39725D01*
X52940Y-39660D01*
X53060Y-39541D01*
X53124Y-39384D01*
X53125Y-39215D01*
X53125Y-39950D01*
X51125Y-39950D01*
X51125Y-39545D01*
X51125Y-38995D01*
X51102Y-38940D01*
X51060Y-38897D01*
X51004Y-38875D01*
X50945Y-38874D01*
X50750Y-38874D01*
X50750Y-38245D01*
X50750Y-37754D01*
X50750Y-37245D01*
X50750Y-36754D01*
X50749Y-36695D01*
X50727Y-36639D01*
X50684Y-36597D01*
X50629Y-36574D01*
X50512Y-36575D01*
X50475Y-36612D01*
X50475Y-36950D01*
X50712Y-36950D01*
X50750Y-36912D01*
X50750Y-36754D01*
X50750Y-37245D01*
X50750Y-37087D01*
X50712Y-37050D01*
X50475Y-37050D01*
X50475Y-37387D01*
X50512Y-37425D01*
X50629Y-37425D01*
X50684Y-37402D01*
X50727Y-37360D01*
X50749Y-37304D01*
X50750Y-37245D01*
X50750Y-37754D01*
X50749Y-37695D01*
X50727Y-37639D01*
X50684Y-37597D01*
X50629Y-37574D01*
X50512Y-37575D01*
X50475Y-37612D01*
X50475Y-37950D01*
X50712Y-37950D01*
X50750Y-37912D01*
X50750Y-37754D01*
X50750Y-38245D01*
X50750Y-38087D01*
X50712Y-38050D01*
X50475Y-38050D01*
X50475Y-38387D01*
X50512Y-38425D01*
X50629Y-38425D01*
X50684Y-38402D01*
X50727Y-38360D01*
X50749Y-38304D01*
X50750Y-38245D01*
X50750Y-38874D01*
X50395Y-38874D01*
X50375Y-38883D01*
X50375Y-38387D01*
X50375Y-38050D01*
X50375Y-37950D01*
X50375Y-37612D01*
X50375Y-37387D01*
X50375Y-37050D01*
X50375Y-36950D01*
X50375Y-36612D01*
X50337Y-36575D01*
X50220Y-36574D01*
X50165Y-36597D01*
X50122Y-36639D01*
X50100Y-36695D01*
X50099Y-36754D01*
X50100Y-36912D01*
X50137Y-36950D01*
X50375Y-36950D01*
X50375Y-37050D01*
X50137Y-37050D01*
X50100Y-37087D01*
X50099Y-37245D01*
X50100Y-37304D01*
X50122Y-37360D01*
X50165Y-37402D01*
X50220Y-37425D01*
X50337Y-37425D01*
X50375Y-37387D01*
X50375Y-37612D01*
X50337Y-37575D01*
X50220Y-37574D01*
X50165Y-37597D01*
X50122Y-37639D01*
X50100Y-37695D01*
X50099Y-37754D01*
X50100Y-37912D01*
X50137Y-37950D01*
X50375Y-37950D01*
X50375Y-38050D01*
X50137Y-38050D01*
X50100Y-38087D01*
X50099Y-38245D01*
X50100Y-38304D01*
X50122Y-38360D01*
X50165Y-38402D01*
X50220Y-38425D01*
X50337Y-38425D01*
X50375Y-38387D01*
X50375Y-38883D01*
X50340Y-38897D01*
X50297Y-38939D01*
X50275Y-38995D01*
X50274Y-39054D01*
X50274Y-39604D01*
X50297Y-39659D01*
X50339Y-39702D01*
X50395Y-39724D01*
X50454Y-39725D01*
X51004Y-39725D01*
X51059Y-39702D01*
X51102Y-39660D01*
X51124Y-39604D01*
X51125Y-39545D01*
X51125Y-39950D01*
X46125Y-39950D01*
X46125Y-39545D01*
X46125Y-39054D01*
X46124Y-38995D01*
X46102Y-38939D01*
X46059Y-38897D01*
X46004Y-38874D01*
X45787Y-38875D01*
X45750Y-38912D01*
X45750Y-39250D01*
X46087Y-39250D01*
X46125Y-39212D01*
X46125Y-39054D01*
X46125Y-39545D01*
X46125Y-39387D01*
X46087Y-39350D01*
X45750Y-39350D01*
X45750Y-39687D01*
X45787Y-39725D01*
X46004Y-39725D01*
X46059Y-39702D01*
X46102Y-39660D01*
X46124Y-39604D01*
X46125Y-39545D01*
X46125Y-39950D01*
X45650Y-39950D01*
X45650Y-39687D01*
X45650Y-39350D01*
X45650Y-39250D01*
X45650Y-38912D01*
X45612Y-38875D01*
X45395Y-38874D01*
X45340Y-38897D01*
X45297Y-38939D01*
X45275Y-38995D01*
X45274Y-39054D01*
X45275Y-39212D01*
X45312Y-39250D01*
X45650Y-39250D01*
X45650Y-39350D01*
X45312Y-39350D01*
X45275Y-39387D01*
X45274Y-39545D01*
X45275Y-39604D01*
X45297Y-39660D01*
X45340Y-39702D01*
X45395Y-39725D01*
X45612Y-39725D01*
X45650Y-39687D01*
X45650Y-39950D01*
X44050Y-39950D01*
X44050Y-31650D01*
X53350Y-31650D01*
X53350Y-39950D01*
M02*
