G04 (created by PCBNEW (2013-07-07 BZR 4022)-stable) date 1/13/2014 9:40:32 PM*
%MOIN*%
G04 Gerber Fmt 3.4, Leading zero omitted, Abs format*
%FSLAX34Y34*%
G01*
G70*
G90*
G04 APERTURE LIST*
%ADD10C,0.00590551*%
%ADD11R,0.055X0.055*%
%ADD12C,0.055*%
%ADD13C,0.035*%
%ADD14C,0.01*%
%ADD15C,0.02*%
G04 APERTURE END LIST*
G54D10*
G54D11*
X44700Y-33300D03*
G54D12*
X44700Y-32300D03*
G54D11*
X45700Y-39300D03*
G54D12*
X44700Y-39300D03*
G54D11*
X50700Y-39300D03*
G54D12*
X49700Y-39300D03*
X48700Y-39300D03*
X47700Y-39300D03*
G54D11*
X52700Y-34300D03*
G54D12*
X52700Y-35300D03*
X52700Y-36300D03*
X52700Y-37300D03*
X52700Y-38300D03*
X52700Y-39300D03*
G54D13*
X49000Y-33900D03*
X49100Y-37200D03*
X48800Y-38000D03*
X48500Y-33900D03*
X51600Y-38000D03*
X48200Y-34300D03*
X48200Y-36100D03*
X45300Y-34700D03*
X45700Y-32900D03*
X45700Y-33500D03*
X45200Y-33900D03*
X50800Y-36100D03*
X44700Y-36000D03*
X45300Y-36000D03*
X45900Y-36000D03*
X46500Y-36000D03*
X47100Y-36000D03*
X47700Y-36000D03*
X47700Y-34100D03*
X47200Y-34100D03*
X47200Y-33500D03*
X47200Y-32900D03*
X48900Y-35600D03*
X49500Y-35600D03*
X49500Y-35000D03*
X48900Y-35000D03*
X49400Y-38400D03*
X51600Y-37000D03*
G54D14*
X49000Y-33900D02*
X49800Y-33900D01*
X49800Y-33900D02*
X50100Y-34200D01*
X50100Y-34200D02*
X50100Y-36200D01*
X50100Y-36200D02*
X49100Y-37200D01*
X50400Y-36400D02*
X48800Y-38000D01*
X50400Y-34200D02*
X50400Y-36400D01*
X49800Y-33600D02*
X50400Y-34200D01*
X48800Y-33600D02*
X49800Y-33600D01*
X48500Y-33900D02*
X48800Y-33600D01*
X51600Y-37500D02*
X51600Y-38000D01*
X51200Y-37100D02*
X51600Y-37500D01*
X51200Y-34700D02*
X51200Y-37100D01*
X49800Y-33300D02*
X51200Y-34700D01*
X48600Y-33300D02*
X49800Y-33300D01*
X48100Y-33800D02*
X48600Y-33300D01*
X48100Y-34200D02*
X48100Y-33800D01*
X48200Y-34300D02*
X48100Y-34200D01*
G54D15*
X45300Y-34700D02*
X45200Y-34600D01*
X45700Y-32900D02*
X45700Y-33500D01*
X45200Y-33900D02*
X45200Y-34600D01*
X45300Y-36000D02*
X44700Y-36000D01*
X46500Y-36000D02*
X45900Y-36000D01*
X47700Y-36000D02*
X47100Y-36000D01*
X47200Y-34100D02*
X47700Y-34100D01*
X47200Y-32900D02*
X47200Y-33500D01*
G54D14*
X50200Y-38800D02*
X50700Y-39300D01*
X49800Y-38800D02*
X50200Y-38800D01*
X49400Y-38400D02*
X49800Y-38800D01*
X52300Y-36300D02*
X52700Y-36300D01*
X51600Y-37000D02*
X52300Y-36300D01*
G54D10*
G36*
X53350Y-39950D02*
X53125Y-39950D01*
X53125Y-39215D01*
X53125Y-38215D01*
X53125Y-37215D01*
X53125Y-36215D01*
X53125Y-35215D01*
X53125Y-35215D01*
X53125Y-34545D01*
X53125Y-33995D01*
X53102Y-33940D01*
X53060Y-33897D01*
X53004Y-33875D01*
X52945Y-33874D01*
X52395Y-33874D01*
X52340Y-33897D01*
X52297Y-33939D01*
X52275Y-33995D01*
X52274Y-34054D01*
X52274Y-34604D01*
X52297Y-34659D01*
X52339Y-34702D01*
X52395Y-34724D01*
X52454Y-34725D01*
X53004Y-34725D01*
X53059Y-34702D01*
X53102Y-34660D01*
X53124Y-34604D01*
X53125Y-34545D01*
X53125Y-35215D01*
X53060Y-35059D01*
X52941Y-34939D01*
X52784Y-34875D01*
X52615Y-34874D01*
X52459Y-34939D01*
X52339Y-35058D01*
X52275Y-35215D01*
X52274Y-35384D01*
X52339Y-35540D01*
X52458Y-35660D01*
X52615Y-35724D01*
X52784Y-35725D01*
X52940Y-35660D01*
X53060Y-35541D01*
X53124Y-35384D01*
X53125Y-35215D01*
X53125Y-36215D01*
X53060Y-36059D01*
X52941Y-35939D01*
X52784Y-35875D01*
X52615Y-35874D01*
X52459Y-35939D01*
X52339Y-36058D01*
X52322Y-36100D01*
X52300Y-36100D01*
X52223Y-36115D01*
X52201Y-36129D01*
X52158Y-36158D01*
X51642Y-36675D01*
X51535Y-36674D01*
X51416Y-36724D01*
X51400Y-36740D01*
X51400Y-34700D01*
X51387Y-34636D01*
X51384Y-34623D01*
X51384Y-34623D01*
X51341Y-34558D01*
X51341Y-34558D01*
X49941Y-33158D01*
X49876Y-33115D01*
X49800Y-33100D01*
X48600Y-33100D01*
X48536Y-33112D01*
X48523Y-33115D01*
X48458Y-33158D01*
X47958Y-33658D01*
X47915Y-33723D01*
X47900Y-33800D01*
X47900Y-34174D01*
X47875Y-34235D01*
X47874Y-34364D01*
X47924Y-34483D01*
X48015Y-34575D01*
X48135Y-34624D01*
X48264Y-34625D01*
X48383Y-34575D01*
X48475Y-34484D01*
X48524Y-34364D01*
X48525Y-34235D01*
X48520Y-34225D01*
X48564Y-34225D01*
X48683Y-34175D01*
X48750Y-34109D01*
X48815Y-34175D01*
X48935Y-34224D01*
X49064Y-34225D01*
X49183Y-34175D01*
X49259Y-34100D01*
X49717Y-34100D01*
X49900Y-34282D01*
X49900Y-36117D01*
X49142Y-36875D01*
X49035Y-36874D01*
X48916Y-36924D01*
X48824Y-37015D01*
X48775Y-37135D01*
X48774Y-37264D01*
X48824Y-37383D01*
X48915Y-37475D01*
X49004Y-37512D01*
X48842Y-37675D01*
X48735Y-37674D01*
X48616Y-37724D01*
X48524Y-37815D01*
X48475Y-37935D01*
X48474Y-38064D01*
X48524Y-38183D01*
X48615Y-38275D01*
X48735Y-38324D01*
X48864Y-38325D01*
X48983Y-38275D01*
X49075Y-38184D01*
X49124Y-38064D01*
X49125Y-37957D01*
X50541Y-36541D01*
X50541Y-36541D01*
X50570Y-36498D01*
X50584Y-36476D01*
X50584Y-36476D01*
X50599Y-36400D01*
X50600Y-36400D01*
X50600Y-34382D01*
X51000Y-34782D01*
X51000Y-37100D01*
X51015Y-37176D01*
X51058Y-37241D01*
X51400Y-37582D01*
X51400Y-37740D01*
X51324Y-37815D01*
X51275Y-37935D01*
X51274Y-38064D01*
X51324Y-38183D01*
X51415Y-38275D01*
X51535Y-38324D01*
X51664Y-38325D01*
X51783Y-38275D01*
X51875Y-38184D01*
X51924Y-38064D01*
X51925Y-37935D01*
X51875Y-37816D01*
X51800Y-37740D01*
X51800Y-37500D01*
X51799Y-37499D01*
X51784Y-37423D01*
X51784Y-37423D01*
X51770Y-37401D01*
X51741Y-37358D01*
X51741Y-37358D01*
X51695Y-37312D01*
X51783Y-37275D01*
X51875Y-37184D01*
X51924Y-37064D01*
X51925Y-36957D01*
X52340Y-36541D01*
X52458Y-36660D01*
X52615Y-36724D01*
X52784Y-36725D01*
X52940Y-36660D01*
X53060Y-36541D01*
X53124Y-36384D01*
X53125Y-36215D01*
X53125Y-37215D01*
X53060Y-37059D01*
X52941Y-36939D01*
X52784Y-36875D01*
X52615Y-36874D01*
X52459Y-36939D01*
X52339Y-37058D01*
X52275Y-37215D01*
X52274Y-37384D01*
X52339Y-37540D01*
X52458Y-37660D01*
X52615Y-37724D01*
X52784Y-37725D01*
X52940Y-37660D01*
X53060Y-37541D01*
X53124Y-37384D01*
X53125Y-37215D01*
X53125Y-38215D01*
X53060Y-38059D01*
X52941Y-37939D01*
X52784Y-37875D01*
X52615Y-37874D01*
X52459Y-37939D01*
X52339Y-38058D01*
X52275Y-38215D01*
X52274Y-38384D01*
X52339Y-38540D01*
X52458Y-38660D01*
X52615Y-38724D01*
X52784Y-38725D01*
X52940Y-38660D01*
X53060Y-38541D01*
X53124Y-38384D01*
X53125Y-38215D01*
X53125Y-39215D01*
X53060Y-39059D01*
X52941Y-38939D01*
X52784Y-38875D01*
X52615Y-38874D01*
X52459Y-38939D01*
X52339Y-39058D01*
X52275Y-39215D01*
X52274Y-39384D01*
X52339Y-39540D01*
X52458Y-39660D01*
X52615Y-39724D01*
X52784Y-39725D01*
X52940Y-39660D01*
X53060Y-39541D01*
X53124Y-39384D01*
X53125Y-39215D01*
X53125Y-39950D01*
X51125Y-39950D01*
X51125Y-39545D01*
X51125Y-38995D01*
X51102Y-38940D01*
X51060Y-38897D01*
X51004Y-38875D01*
X50945Y-38874D01*
X50557Y-38874D01*
X50341Y-38658D01*
X50276Y-38615D01*
X50200Y-38600D01*
X49882Y-38600D01*
X49724Y-38442D01*
X49725Y-38335D01*
X49675Y-38216D01*
X49584Y-38124D01*
X49464Y-38075D01*
X49335Y-38074D01*
X49216Y-38124D01*
X49124Y-38215D01*
X49075Y-38335D01*
X49074Y-38464D01*
X49124Y-38583D01*
X49215Y-38675D01*
X49335Y-38724D01*
X49442Y-38725D01*
X49599Y-38881D01*
X49459Y-38939D01*
X49339Y-39058D01*
X49275Y-39215D01*
X49274Y-39384D01*
X49339Y-39540D01*
X49458Y-39660D01*
X49615Y-39724D01*
X49784Y-39725D01*
X49940Y-39660D01*
X50060Y-39541D01*
X50124Y-39384D01*
X50125Y-39215D01*
X50060Y-39059D01*
X50001Y-39000D01*
X50117Y-39000D01*
X50274Y-39157D01*
X50274Y-39604D01*
X50297Y-39659D01*
X50339Y-39702D01*
X50395Y-39724D01*
X50454Y-39725D01*
X51004Y-39725D01*
X51059Y-39702D01*
X51102Y-39660D01*
X51124Y-39604D01*
X51125Y-39545D01*
X51125Y-39950D01*
X49125Y-39950D01*
X49125Y-39215D01*
X49060Y-39059D01*
X48941Y-38939D01*
X48784Y-38875D01*
X48615Y-38874D01*
X48459Y-38939D01*
X48339Y-39058D01*
X48275Y-39215D01*
X48274Y-39384D01*
X48339Y-39540D01*
X48458Y-39660D01*
X48615Y-39724D01*
X48784Y-39725D01*
X48940Y-39660D01*
X49060Y-39541D01*
X49124Y-39384D01*
X49125Y-39215D01*
X49125Y-39950D01*
X48125Y-39950D01*
X48125Y-39215D01*
X48060Y-39059D01*
X47941Y-38939D01*
X47784Y-38875D01*
X47615Y-38874D01*
X47459Y-38939D01*
X47339Y-39058D01*
X47275Y-39215D01*
X47274Y-39384D01*
X47339Y-39540D01*
X47458Y-39660D01*
X47615Y-39724D01*
X47784Y-39725D01*
X47940Y-39660D01*
X48060Y-39541D01*
X48124Y-39384D01*
X48125Y-39215D01*
X48125Y-39950D01*
X46125Y-39950D01*
X46125Y-39545D01*
X46125Y-39054D01*
X46124Y-38995D01*
X46102Y-38939D01*
X46059Y-38897D01*
X46004Y-38874D01*
X45787Y-38875D01*
X45750Y-38912D01*
X45750Y-39250D01*
X46087Y-39250D01*
X46125Y-39212D01*
X46125Y-39054D01*
X46125Y-39545D01*
X46125Y-39387D01*
X46087Y-39350D01*
X45750Y-39350D01*
X45750Y-39687D01*
X45787Y-39725D01*
X46004Y-39725D01*
X46059Y-39702D01*
X46102Y-39660D01*
X46124Y-39604D01*
X46125Y-39545D01*
X46125Y-39950D01*
X45650Y-39950D01*
X45650Y-39687D01*
X45650Y-39350D01*
X45650Y-39250D01*
X45650Y-38912D01*
X45612Y-38875D01*
X45395Y-38874D01*
X45340Y-38897D01*
X45297Y-38939D01*
X45275Y-38995D01*
X45274Y-39054D01*
X45275Y-39212D01*
X45312Y-39250D01*
X45650Y-39250D01*
X45650Y-39350D01*
X45312Y-39350D01*
X45275Y-39387D01*
X45274Y-39545D01*
X45275Y-39604D01*
X45297Y-39660D01*
X45340Y-39702D01*
X45395Y-39725D01*
X45612Y-39725D01*
X45650Y-39687D01*
X45650Y-39950D01*
X45130Y-39950D01*
X45130Y-32351D01*
X45117Y-32183D01*
X45077Y-32087D01*
X45013Y-32057D01*
X44942Y-32128D01*
X44942Y-31986D01*
X44912Y-31922D01*
X44751Y-31869D01*
X44583Y-31882D01*
X44487Y-31922D01*
X44457Y-31986D01*
X44700Y-32229D01*
X44942Y-31986D01*
X44942Y-32128D01*
X44770Y-32300D01*
X45013Y-32542D01*
X45077Y-32512D01*
X45130Y-32351D01*
X45130Y-39950D01*
X45125Y-39950D01*
X45125Y-39215D01*
X45125Y-39215D01*
X45125Y-33545D01*
X45125Y-32995D01*
X45102Y-32940D01*
X45060Y-32897D01*
X45004Y-32875D01*
X44945Y-32874D01*
X44942Y-32874D01*
X44942Y-32613D01*
X44700Y-32370D01*
X44629Y-32441D01*
X44629Y-32300D01*
X44386Y-32057D01*
X44322Y-32087D01*
X44269Y-32248D01*
X44282Y-32416D01*
X44322Y-32512D01*
X44386Y-32542D01*
X44629Y-32300D01*
X44629Y-32441D01*
X44457Y-32613D01*
X44487Y-32677D01*
X44648Y-32730D01*
X44816Y-32717D01*
X44912Y-32677D01*
X44942Y-32613D01*
X44942Y-32874D01*
X44395Y-32874D01*
X44340Y-32897D01*
X44297Y-32939D01*
X44275Y-32995D01*
X44274Y-33054D01*
X44274Y-33604D01*
X44297Y-33659D01*
X44339Y-33702D01*
X44395Y-33724D01*
X44454Y-33725D01*
X45004Y-33725D01*
X45059Y-33702D01*
X45102Y-33660D01*
X45124Y-33604D01*
X45125Y-33545D01*
X45125Y-39215D01*
X45060Y-39059D01*
X44941Y-38939D01*
X44784Y-38875D01*
X44615Y-38874D01*
X44459Y-38939D01*
X44339Y-39058D01*
X44275Y-39215D01*
X44274Y-39384D01*
X44339Y-39540D01*
X44458Y-39660D01*
X44615Y-39724D01*
X44784Y-39725D01*
X44940Y-39660D01*
X45060Y-39541D01*
X45124Y-39384D01*
X45125Y-39215D01*
X45125Y-39950D01*
X44050Y-39950D01*
X44050Y-31650D01*
X53350Y-31650D01*
X53350Y-39950D01*
X53350Y-39950D01*
G37*
G54D14*
X53350Y-39950D02*
X53125Y-39950D01*
X53125Y-39215D01*
X53125Y-38215D01*
X53125Y-37215D01*
X53125Y-36215D01*
X53125Y-35215D01*
X53125Y-35215D01*
X53125Y-34545D01*
X53125Y-33995D01*
X53102Y-33940D01*
X53060Y-33897D01*
X53004Y-33875D01*
X52945Y-33874D01*
X52395Y-33874D01*
X52340Y-33897D01*
X52297Y-33939D01*
X52275Y-33995D01*
X52274Y-34054D01*
X52274Y-34604D01*
X52297Y-34659D01*
X52339Y-34702D01*
X52395Y-34724D01*
X52454Y-34725D01*
X53004Y-34725D01*
X53059Y-34702D01*
X53102Y-34660D01*
X53124Y-34604D01*
X53125Y-34545D01*
X53125Y-35215D01*
X53060Y-35059D01*
X52941Y-34939D01*
X52784Y-34875D01*
X52615Y-34874D01*
X52459Y-34939D01*
X52339Y-35058D01*
X52275Y-35215D01*
X52274Y-35384D01*
X52339Y-35540D01*
X52458Y-35660D01*
X52615Y-35724D01*
X52784Y-35725D01*
X52940Y-35660D01*
X53060Y-35541D01*
X53124Y-35384D01*
X53125Y-35215D01*
X53125Y-36215D01*
X53060Y-36059D01*
X52941Y-35939D01*
X52784Y-35875D01*
X52615Y-35874D01*
X52459Y-35939D01*
X52339Y-36058D01*
X52322Y-36100D01*
X52300Y-36100D01*
X52223Y-36115D01*
X52201Y-36129D01*
X52158Y-36158D01*
X51642Y-36675D01*
X51535Y-36674D01*
X51416Y-36724D01*
X51400Y-36740D01*
X51400Y-34700D01*
X51387Y-34636D01*
X51384Y-34623D01*
X51384Y-34623D01*
X51341Y-34558D01*
X51341Y-34558D01*
X49941Y-33158D01*
X49876Y-33115D01*
X49800Y-33100D01*
X48600Y-33100D01*
X48536Y-33112D01*
X48523Y-33115D01*
X48458Y-33158D01*
X47958Y-33658D01*
X47915Y-33723D01*
X47900Y-33800D01*
X47900Y-34174D01*
X47875Y-34235D01*
X47874Y-34364D01*
X47924Y-34483D01*
X48015Y-34575D01*
X48135Y-34624D01*
X48264Y-34625D01*
X48383Y-34575D01*
X48475Y-34484D01*
X48524Y-34364D01*
X48525Y-34235D01*
X48520Y-34225D01*
X48564Y-34225D01*
X48683Y-34175D01*
X48750Y-34109D01*
X48815Y-34175D01*
X48935Y-34224D01*
X49064Y-34225D01*
X49183Y-34175D01*
X49259Y-34100D01*
X49717Y-34100D01*
X49900Y-34282D01*
X49900Y-36117D01*
X49142Y-36875D01*
X49035Y-36874D01*
X48916Y-36924D01*
X48824Y-37015D01*
X48775Y-37135D01*
X48774Y-37264D01*
X48824Y-37383D01*
X48915Y-37475D01*
X49004Y-37512D01*
X48842Y-37675D01*
X48735Y-37674D01*
X48616Y-37724D01*
X48524Y-37815D01*
X48475Y-37935D01*
X48474Y-38064D01*
X48524Y-38183D01*
X48615Y-38275D01*
X48735Y-38324D01*
X48864Y-38325D01*
X48983Y-38275D01*
X49075Y-38184D01*
X49124Y-38064D01*
X49125Y-37957D01*
X50541Y-36541D01*
X50541Y-36541D01*
X50570Y-36498D01*
X50584Y-36476D01*
X50584Y-36476D01*
X50599Y-36400D01*
X50600Y-36400D01*
X50600Y-34382D01*
X51000Y-34782D01*
X51000Y-37100D01*
X51015Y-37176D01*
X51058Y-37241D01*
X51400Y-37582D01*
X51400Y-37740D01*
X51324Y-37815D01*
X51275Y-37935D01*
X51274Y-38064D01*
X51324Y-38183D01*
X51415Y-38275D01*
X51535Y-38324D01*
X51664Y-38325D01*
X51783Y-38275D01*
X51875Y-38184D01*
X51924Y-38064D01*
X51925Y-37935D01*
X51875Y-37816D01*
X51800Y-37740D01*
X51800Y-37500D01*
X51799Y-37499D01*
X51784Y-37423D01*
X51784Y-37423D01*
X51770Y-37401D01*
X51741Y-37358D01*
X51741Y-37358D01*
X51695Y-37312D01*
X51783Y-37275D01*
X51875Y-37184D01*
X51924Y-37064D01*
X51925Y-36957D01*
X52340Y-36541D01*
X52458Y-36660D01*
X52615Y-36724D01*
X52784Y-36725D01*
X52940Y-36660D01*
X53060Y-36541D01*
X53124Y-36384D01*
X53125Y-36215D01*
X53125Y-37215D01*
X53060Y-37059D01*
X52941Y-36939D01*
X52784Y-36875D01*
X52615Y-36874D01*
X52459Y-36939D01*
X52339Y-37058D01*
X52275Y-37215D01*
X52274Y-37384D01*
X52339Y-37540D01*
X52458Y-37660D01*
X52615Y-37724D01*
X52784Y-37725D01*
X52940Y-37660D01*
X53060Y-37541D01*
X53124Y-37384D01*
X53125Y-37215D01*
X53125Y-38215D01*
X53060Y-38059D01*
X52941Y-37939D01*
X52784Y-37875D01*
X52615Y-37874D01*
X52459Y-37939D01*
X52339Y-38058D01*
X52275Y-38215D01*
X52274Y-38384D01*
X52339Y-38540D01*
X52458Y-38660D01*
X52615Y-38724D01*
X52784Y-38725D01*
X52940Y-38660D01*
X53060Y-38541D01*
X53124Y-38384D01*
X53125Y-38215D01*
X53125Y-39215D01*
X53060Y-39059D01*
X52941Y-38939D01*
X52784Y-38875D01*
X52615Y-38874D01*
X52459Y-38939D01*
X52339Y-39058D01*
X52275Y-39215D01*
X52274Y-39384D01*
X52339Y-39540D01*
X52458Y-39660D01*
X52615Y-39724D01*
X52784Y-39725D01*
X52940Y-39660D01*
X53060Y-39541D01*
X53124Y-39384D01*
X53125Y-39215D01*
X53125Y-39950D01*
X51125Y-39950D01*
X51125Y-39545D01*
X51125Y-38995D01*
X51102Y-38940D01*
X51060Y-38897D01*
X51004Y-38875D01*
X50945Y-38874D01*
X50557Y-38874D01*
X50341Y-38658D01*
X50276Y-38615D01*
X50200Y-38600D01*
X49882Y-38600D01*
X49724Y-38442D01*
X49725Y-38335D01*
X49675Y-38216D01*
X49584Y-38124D01*
X49464Y-38075D01*
X49335Y-38074D01*
X49216Y-38124D01*
X49124Y-38215D01*
X49075Y-38335D01*
X49074Y-38464D01*
X49124Y-38583D01*
X49215Y-38675D01*
X49335Y-38724D01*
X49442Y-38725D01*
X49599Y-38881D01*
X49459Y-38939D01*
X49339Y-39058D01*
X49275Y-39215D01*
X49274Y-39384D01*
X49339Y-39540D01*
X49458Y-39660D01*
X49615Y-39724D01*
X49784Y-39725D01*
X49940Y-39660D01*
X50060Y-39541D01*
X50124Y-39384D01*
X50125Y-39215D01*
X50060Y-39059D01*
X50001Y-39000D01*
X50117Y-39000D01*
X50274Y-39157D01*
X50274Y-39604D01*
X50297Y-39659D01*
X50339Y-39702D01*
X50395Y-39724D01*
X50454Y-39725D01*
X51004Y-39725D01*
X51059Y-39702D01*
X51102Y-39660D01*
X51124Y-39604D01*
X51125Y-39545D01*
X51125Y-39950D01*
X49125Y-39950D01*
X49125Y-39215D01*
X49060Y-39059D01*
X48941Y-38939D01*
X48784Y-38875D01*
X48615Y-38874D01*
X48459Y-38939D01*
X48339Y-39058D01*
X48275Y-39215D01*
X48274Y-39384D01*
X48339Y-39540D01*
X48458Y-39660D01*
X48615Y-39724D01*
X48784Y-39725D01*
X48940Y-39660D01*
X49060Y-39541D01*
X49124Y-39384D01*
X49125Y-39215D01*
X49125Y-39950D01*
X48125Y-39950D01*
X48125Y-39215D01*
X48060Y-39059D01*
X47941Y-38939D01*
X47784Y-38875D01*
X47615Y-38874D01*
X47459Y-38939D01*
X47339Y-39058D01*
X47275Y-39215D01*
X47274Y-39384D01*
X47339Y-39540D01*
X47458Y-39660D01*
X47615Y-39724D01*
X47784Y-39725D01*
X47940Y-39660D01*
X48060Y-39541D01*
X48124Y-39384D01*
X48125Y-39215D01*
X48125Y-39950D01*
X46125Y-39950D01*
X46125Y-39545D01*
X46125Y-39054D01*
X46124Y-38995D01*
X46102Y-38939D01*
X46059Y-38897D01*
X46004Y-38874D01*
X45787Y-38875D01*
X45750Y-38912D01*
X45750Y-39250D01*
X46087Y-39250D01*
X46125Y-39212D01*
X46125Y-39054D01*
X46125Y-39545D01*
X46125Y-39387D01*
X46087Y-39350D01*
X45750Y-39350D01*
X45750Y-39687D01*
X45787Y-39725D01*
X46004Y-39725D01*
X46059Y-39702D01*
X46102Y-39660D01*
X46124Y-39604D01*
X46125Y-39545D01*
X46125Y-39950D01*
X45650Y-39950D01*
X45650Y-39687D01*
X45650Y-39350D01*
X45650Y-39250D01*
X45650Y-38912D01*
X45612Y-38875D01*
X45395Y-38874D01*
X45340Y-38897D01*
X45297Y-38939D01*
X45275Y-38995D01*
X45274Y-39054D01*
X45275Y-39212D01*
X45312Y-39250D01*
X45650Y-39250D01*
X45650Y-39350D01*
X45312Y-39350D01*
X45275Y-39387D01*
X45274Y-39545D01*
X45275Y-39604D01*
X45297Y-39660D01*
X45340Y-39702D01*
X45395Y-39725D01*
X45612Y-39725D01*
X45650Y-39687D01*
X45650Y-39950D01*
X45130Y-39950D01*
X45130Y-32351D01*
X45117Y-32183D01*
X45077Y-32087D01*
X45013Y-32057D01*
X44942Y-32128D01*
X44942Y-31986D01*
X44912Y-31922D01*
X44751Y-31869D01*
X44583Y-31882D01*
X44487Y-31922D01*
X44457Y-31986D01*
X44700Y-32229D01*
X44942Y-31986D01*
X44942Y-32128D01*
X44770Y-32300D01*
X45013Y-32542D01*
X45077Y-32512D01*
X45130Y-32351D01*
X45130Y-39950D01*
X45125Y-39950D01*
X45125Y-39215D01*
X45125Y-39215D01*
X45125Y-33545D01*
X45125Y-32995D01*
X45102Y-32940D01*
X45060Y-32897D01*
X45004Y-32875D01*
X44945Y-32874D01*
X44942Y-32874D01*
X44942Y-32613D01*
X44700Y-32370D01*
X44629Y-32441D01*
X44629Y-32300D01*
X44386Y-32057D01*
X44322Y-32087D01*
X44269Y-32248D01*
X44282Y-32416D01*
X44322Y-32512D01*
X44386Y-32542D01*
X44629Y-32300D01*
X44629Y-32441D01*
X44457Y-32613D01*
X44487Y-32677D01*
X44648Y-32730D01*
X44816Y-32717D01*
X44912Y-32677D01*
X44942Y-32613D01*
X44942Y-32874D01*
X44395Y-32874D01*
X44340Y-32897D01*
X44297Y-32939D01*
X44275Y-32995D01*
X44274Y-33054D01*
X44274Y-33604D01*
X44297Y-33659D01*
X44339Y-33702D01*
X44395Y-33724D01*
X44454Y-33725D01*
X45004Y-33725D01*
X45059Y-33702D01*
X45102Y-33660D01*
X45124Y-33604D01*
X45125Y-33545D01*
X45125Y-39215D01*
X45060Y-39059D01*
X44941Y-38939D01*
X44784Y-38875D01*
X44615Y-38874D01*
X44459Y-38939D01*
X44339Y-39058D01*
X44275Y-39215D01*
X44274Y-39384D01*
X44339Y-39540D01*
X44458Y-39660D01*
X44615Y-39724D01*
X44784Y-39725D01*
X44940Y-39660D01*
X45060Y-39541D01*
X45124Y-39384D01*
X45125Y-39215D01*
X45125Y-39950D01*
X44050Y-39950D01*
X44050Y-31650D01*
X53350Y-31650D01*
X53350Y-39950D01*
M02*
