G04 (created by PCBNEW (2013-07-07 BZR 4022)-stable) date 1/13/2014 9:40:32 PM*
%MOIN*%
G04 Gerber Fmt 3.4, Leading zero omitted, Abs format*
%FSLAX34Y34*%
G01*
G70*
G90*
G04 APERTURE LIST*
%ADD10C,0.00590551*%
%ADD11C,0.011811*%
%ADD12C,0.008*%
%ADD13C,0.01*%
G04 APERTURE END LIST*
G54D10*
G54D11*
X44529Y-35287D02*
X44529Y-35006D01*
X44360Y-35343D02*
X44951Y-35146D01*
X44360Y-34950D01*
X44360Y-34753D02*
X44951Y-34753D01*
X44360Y-34415D01*
X44951Y-34415D01*
X44951Y-34218D02*
X44951Y-33881D01*
X44360Y-34050D02*
X44951Y-34050D01*
G54D12*
X52223Y-39442D02*
X52166Y-39461D01*
X52071Y-39461D01*
X52033Y-39442D01*
X52014Y-39423D01*
X51995Y-39385D01*
X51995Y-39347D01*
X52014Y-39309D01*
X52033Y-39290D01*
X52071Y-39271D01*
X52147Y-39252D01*
X52185Y-39233D01*
X52204Y-39214D01*
X52223Y-39176D01*
X52223Y-39138D01*
X52204Y-39100D01*
X52185Y-39080D01*
X52147Y-39061D01*
X52052Y-39061D01*
X51995Y-39080D01*
X51823Y-39461D02*
X51823Y-39061D01*
X51728Y-39061D01*
X51671Y-39080D01*
X51633Y-39119D01*
X51614Y-39157D01*
X51595Y-39233D01*
X51595Y-39290D01*
X51614Y-39366D01*
X51633Y-39404D01*
X51671Y-39442D01*
X51728Y-39461D01*
X51823Y-39461D01*
X51423Y-39461D02*
X51423Y-39061D01*
X51195Y-39461D01*
X51195Y-39061D01*
G54D13*
X52080Y-38502D02*
X52080Y-38002D01*
X51557Y-38502D02*
X51723Y-38264D01*
X51842Y-38502D02*
X51842Y-38002D01*
X51652Y-38002D01*
X51604Y-38026D01*
X51580Y-38050D01*
X51557Y-38097D01*
X51557Y-38169D01*
X51580Y-38216D01*
X51604Y-38240D01*
X51652Y-38264D01*
X51842Y-38264D01*
X51009Y-38550D02*
X51057Y-38526D01*
X51104Y-38478D01*
X51176Y-38407D01*
X51223Y-38383D01*
X51271Y-38383D01*
X51247Y-38502D02*
X51295Y-38478D01*
X51342Y-38430D01*
X51366Y-38335D01*
X51366Y-38169D01*
X51342Y-38073D01*
X51295Y-38026D01*
X51247Y-38002D01*
X51152Y-38002D01*
X51104Y-38026D01*
X51057Y-38073D01*
X51033Y-38169D01*
X51033Y-38335D01*
X51057Y-38430D01*
X51104Y-38478D01*
X51152Y-38502D01*
X51247Y-38502D01*
G54D11*
X52087Y-37510D02*
X52003Y-37539D01*
X51862Y-37539D01*
X51806Y-37510D01*
X51778Y-37482D01*
X51750Y-37426D01*
X51750Y-37370D01*
X51778Y-37314D01*
X51806Y-37285D01*
X51862Y-37257D01*
X51975Y-37229D01*
X52031Y-37201D01*
X52059Y-37173D01*
X52087Y-37117D01*
X52087Y-37060D01*
X52059Y-37004D01*
X52031Y-36976D01*
X51975Y-36948D01*
X51834Y-36948D01*
X51750Y-36976D01*
X51159Y-37482D02*
X51187Y-37510D01*
X51271Y-37539D01*
X51328Y-37539D01*
X51412Y-37510D01*
X51468Y-37454D01*
X51496Y-37398D01*
X51525Y-37285D01*
X51525Y-37201D01*
X51496Y-37089D01*
X51468Y-37032D01*
X51412Y-36976D01*
X51328Y-36948D01*
X51271Y-36948D01*
X51187Y-36976D01*
X51159Y-37004D01*
X50625Y-37539D02*
X50906Y-37539D01*
X50906Y-36948D01*
X50428Y-37539D02*
X50428Y-36948D01*
X50090Y-37539D02*
X50343Y-37201D01*
X50090Y-36948D02*
X50428Y-37285D01*
X52087Y-36510D02*
X52003Y-36539D01*
X51862Y-36539D01*
X51806Y-36510D01*
X51778Y-36482D01*
X51750Y-36426D01*
X51750Y-36370D01*
X51778Y-36314D01*
X51806Y-36285D01*
X51862Y-36257D01*
X51975Y-36229D01*
X52031Y-36201D01*
X52059Y-36173D01*
X52087Y-36117D01*
X52087Y-36060D01*
X52059Y-36004D01*
X52031Y-35976D01*
X51975Y-35948D01*
X51834Y-35948D01*
X51750Y-35976D01*
X51496Y-36539D02*
X51496Y-35948D01*
X51356Y-35948D01*
X51271Y-35976D01*
X51215Y-36032D01*
X51187Y-36089D01*
X51159Y-36201D01*
X51159Y-36285D01*
X51187Y-36398D01*
X51215Y-36454D01*
X51271Y-36510D01*
X51356Y-36539D01*
X51496Y-36539D01*
X50793Y-35948D02*
X50681Y-35948D01*
X50625Y-35976D01*
X50568Y-36032D01*
X50540Y-36145D01*
X50540Y-36342D01*
X50568Y-36454D01*
X50625Y-36510D01*
X50681Y-36539D01*
X50793Y-36539D01*
X50850Y-36510D01*
X50906Y-36454D01*
X50934Y-36342D01*
X50934Y-36145D01*
X50906Y-36032D01*
X50850Y-35976D01*
X50793Y-35948D01*
X52087Y-35510D02*
X52003Y-35539D01*
X51862Y-35539D01*
X51806Y-35510D01*
X51778Y-35482D01*
X51750Y-35426D01*
X51750Y-35370D01*
X51778Y-35314D01*
X51806Y-35285D01*
X51862Y-35257D01*
X51975Y-35229D01*
X52031Y-35201D01*
X52059Y-35173D01*
X52087Y-35117D01*
X52087Y-35060D01*
X52059Y-35004D01*
X52031Y-34976D01*
X51975Y-34948D01*
X51834Y-34948D01*
X51750Y-34976D01*
X51496Y-35539D02*
X51496Y-34948D01*
X51356Y-34948D01*
X51271Y-34976D01*
X51215Y-35032D01*
X51187Y-35089D01*
X51159Y-35201D01*
X51159Y-35285D01*
X51187Y-35398D01*
X51215Y-35454D01*
X51271Y-35510D01*
X51356Y-35539D01*
X51496Y-35539D01*
X50906Y-35539D02*
X50906Y-34948D01*
X52087Y-34510D02*
X52003Y-34539D01*
X51862Y-34539D01*
X51806Y-34510D01*
X51778Y-34482D01*
X51750Y-34426D01*
X51750Y-34370D01*
X51778Y-34314D01*
X51806Y-34285D01*
X51862Y-34257D01*
X51975Y-34229D01*
X52031Y-34201D01*
X52059Y-34173D01*
X52087Y-34117D01*
X52087Y-34060D01*
X52059Y-34004D01*
X52031Y-33976D01*
X51975Y-33948D01*
X51834Y-33948D01*
X51750Y-33976D01*
X51496Y-34229D02*
X51300Y-34229D01*
X51215Y-34539D02*
X51496Y-34539D01*
X51496Y-33948D01*
X51215Y-33948D01*
X50681Y-34539D02*
X50962Y-34539D01*
X50962Y-33948D01*
G54D12*
X47938Y-38742D02*
X47938Y-38495D01*
X47785Y-38628D01*
X47785Y-38571D01*
X47766Y-38533D01*
X47747Y-38514D01*
X47709Y-38495D01*
X47614Y-38495D01*
X47576Y-38514D01*
X47557Y-38533D01*
X47538Y-38571D01*
X47538Y-38685D01*
X47557Y-38723D01*
X47576Y-38742D01*
X48650Y-38723D02*
X48669Y-38704D01*
X48688Y-38666D01*
X48688Y-38571D01*
X48669Y-38533D01*
X48650Y-38514D01*
X48611Y-38495D01*
X48573Y-38495D01*
X48516Y-38514D01*
X48288Y-38742D01*
X48288Y-38495D01*
X50788Y-38628D02*
X50788Y-38590D01*
X50769Y-38552D01*
X50750Y-38533D01*
X50711Y-38514D01*
X50635Y-38495D01*
X50540Y-38495D01*
X50464Y-38514D01*
X50426Y-38533D01*
X50407Y-38552D01*
X50388Y-38590D01*
X50388Y-38628D01*
X50407Y-38666D01*
X50426Y-38685D01*
X50464Y-38704D01*
X50540Y-38723D01*
X50635Y-38723D01*
X50711Y-38704D01*
X50750Y-38685D01*
X50769Y-38666D01*
X50788Y-38628D01*
X49788Y-38495D02*
X49788Y-38723D01*
X49788Y-38609D02*
X50188Y-38609D01*
X50130Y-38647D01*
X50092Y-38685D01*
X50073Y-38723D01*
G54D11*
X49523Y-38390D02*
X49551Y-38446D01*
X49551Y-38531D01*
X49523Y-38615D01*
X49467Y-38671D01*
X49410Y-38699D01*
X49298Y-38728D01*
X49214Y-38728D01*
X49101Y-38699D01*
X49045Y-38671D01*
X48989Y-38615D01*
X48960Y-38531D01*
X48960Y-38474D01*
X48989Y-38390D01*
X49017Y-38362D01*
X49214Y-38362D01*
X49214Y-38474D01*
X48960Y-38109D02*
X49551Y-38109D01*
X49551Y-37884D01*
X49523Y-37828D01*
X49495Y-37800D01*
X49439Y-37771D01*
X49354Y-37771D01*
X49298Y-37800D01*
X49270Y-37828D01*
X49242Y-37884D01*
X49242Y-38109D01*
X48960Y-37518D02*
X49551Y-37518D01*
X49551Y-37125D02*
X49551Y-37012D01*
X49523Y-36956D01*
X49467Y-36900D01*
X49354Y-36871D01*
X49157Y-36871D01*
X49045Y-36900D01*
X48989Y-36956D01*
X48960Y-37012D01*
X48960Y-37125D01*
X48989Y-37181D01*
X49045Y-37237D01*
X49157Y-37265D01*
X49354Y-37265D01*
X49467Y-37237D01*
X49523Y-37181D01*
X49551Y-37125D01*
X46023Y-38350D02*
X46051Y-38406D01*
X46051Y-38490D01*
X46023Y-38575D01*
X45967Y-38631D01*
X45910Y-38659D01*
X45798Y-38687D01*
X45714Y-38687D01*
X45601Y-38659D01*
X45545Y-38631D01*
X45489Y-38575D01*
X45460Y-38490D01*
X45460Y-38434D01*
X45489Y-38350D01*
X45517Y-38321D01*
X45714Y-38321D01*
X45714Y-38434D01*
X45460Y-38068D02*
X46051Y-38068D01*
X45460Y-37731D01*
X46051Y-37731D01*
X45460Y-37450D02*
X46051Y-37450D01*
X46051Y-37309D01*
X46023Y-37225D01*
X45967Y-37168D01*
X45910Y-37140D01*
X45798Y-37112D01*
X45714Y-37112D01*
X45601Y-37140D01*
X45545Y-37168D01*
X45489Y-37225D01*
X45460Y-37309D01*
X45460Y-37450D01*
X45051Y-38715D02*
X45051Y-38350D01*
X44826Y-38546D01*
X44826Y-38462D01*
X44798Y-38406D01*
X44770Y-38378D01*
X44714Y-38350D01*
X44573Y-38350D01*
X44517Y-38378D01*
X44489Y-38406D01*
X44460Y-38462D01*
X44460Y-38631D01*
X44489Y-38687D01*
X44517Y-38715D01*
X44517Y-38096D02*
X44489Y-38068D01*
X44460Y-38096D01*
X44489Y-38125D01*
X44517Y-38096D01*
X44460Y-38096D01*
X45051Y-37871D02*
X45051Y-37506D01*
X44826Y-37703D01*
X44826Y-37618D01*
X44798Y-37562D01*
X44770Y-37534D01*
X44714Y-37506D01*
X44573Y-37506D01*
X44517Y-37534D01*
X44489Y-37562D01*
X44460Y-37618D01*
X44460Y-37787D01*
X44489Y-37843D01*
X44517Y-37871D01*
X45051Y-37337D02*
X44460Y-37140D01*
X45051Y-36943D01*
M02*
