G04 (created by PCBNEW (2013-07-07 BZR 4022)-stable) date 1/13/2014 9:19:25 PM*
%MOIN*%
G04 Gerber Fmt 3.4, Leading zero omitted, Abs format*
%FSLAX34Y34*%
G01*
G70*
G90*
G04 APERTURE LIST*
%ADD10C,0.00590551*%
%ADD11R,0.0986142X0.0592441*%
%ADD12R,0.110236X0.110236*%
%ADD13R,0.0177165X0.0590551*%
%ADD14R,0.0590551X0.0177165*%
%ADD15R,0.055X0.035*%
%ADD16R,0.035X0.055*%
%ADD17R,0.055X0.055*%
%ADD18C,0.055*%
G04 APERTURE END LIST*
G54D10*
G54D11*
X49512Y-33233D03*
X51087Y-33233D03*
X49512Y-32366D03*
X51087Y-32366D03*
G54D12*
X49200Y-35300D03*
G54D13*
X49200Y-34394D03*
X49003Y-34394D03*
X48806Y-34394D03*
X49396Y-34394D03*
X49593Y-34394D03*
X49200Y-36205D03*
X49003Y-36205D03*
X48806Y-36205D03*
X49396Y-36205D03*
X49593Y-36205D03*
G54D14*
X50105Y-34906D03*
X50105Y-35103D03*
X50105Y-35300D03*
X50105Y-35496D03*
X50105Y-35693D03*
X48294Y-35693D03*
X48294Y-35496D03*
X48294Y-35300D03*
X48294Y-35103D03*
X48294Y-34906D03*
G54D15*
X46500Y-32525D03*
X46500Y-33275D03*
G54D16*
X45725Y-35300D03*
X46475Y-35300D03*
G54D15*
X47800Y-37875D03*
X47800Y-37125D03*
X46700Y-37875D03*
X46700Y-37125D03*
X45600Y-37875D03*
X45600Y-37125D03*
G54D16*
X46475Y-34200D03*
X45725Y-34200D03*
G54D15*
X47400Y-34625D03*
X47400Y-35375D03*
G54D16*
X50425Y-38000D03*
X51175Y-38000D03*
X50425Y-37000D03*
X51175Y-37000D03*
G54D15*
X44700Y-34525D03*
X44700Y-35275D03*
G54D17*
X44700Y-33300D03*
G54D18*
X44700Y-32300D03*
G54D17*
X45700Y-39300D03*
G54D18*
X44700Y-39300D03*
G54D17*
X50700Y-39300D03*
G54D18*
X49700Y-39300D03*
X48700Y-39300D03*
X47700Y-39300D03*
G54D17*
X52700Y-34300D03*
G54D18*
X52700Y-35300D03*
X52700Y-36300D03*
X52700Y-37300D03*
X52700Y-38300D03*
X52700Y-39300D03*
M02*
