M48
INCH,TZ
T1C0.025
T2C0.036
%
G90
G05
T1
X44700Y-36000
X45200Y-33900
X45300Y-34700
X45300Y-36000
X45700Y-32900
X45700Y-33500
X45900Y-36000
X46500Y-36000
X47100Y-36000
X47200Y-32900
X47200Y-33500
X47200Y-34100
X47700Y-34100
X47700Y-36000
X48200Y-34300
X48200Y-36100
X48500Y-33900
X48800Y-38000
X48900Y-35000
X48900Y-35600
X49000Y-33900
X49100Y-37200
X49400Y-38400
X49500Y-35000
X49500Y-35600
X50800Y-36100
X51600Y-37000
X51600Y-38000
T2
X44700Y-32300
X44700Y-33300
X44700Y-39300
X45700Y-39300
X47700Y-39300
X48700Y-39300
X49700Y-39300
X50700Y-39300
X52700Y-34300
X52700Y-35300
X52700Y-36300
X52700Y-37300
X52700Y-38300
X52700Y-39300
T0
M30
