G04 (created by PCBNEW (2013-07-07 BZR 4022)-stable) date 7/21/2013 3:18:37 PM*
%MOIN*%
G04 Gerber Fmt 3.4, Leading zero omitted, Abs format*
%FSLAX34Y34*%
G01*
G70*
G90*
G04 APERTURE LIST*
%ADD10C,0.00590551*%
%ADD11C,0.0039*%
%ADD12C,0.012*%
G04 APERTURE END LIST*
G54D10*
X94470Y-59488D02*
X95729Y-59488D01*
X95729Y-59488D02*
X95729Y-60511D01*
X95729Y-60511D02*
X94470Y-60511D01*
X94470Y-60511D02*
X94470Y-59488D01*
X93212Y-61712D02*
X94787Y-61712D01*
X94787Y-61712D02*
X94787Y-63287D01*
X94787Y-63287D02*
X93212Y-63287D01*
X93212Y-63287D02*
X93212Y-61712D01*
G54D11*
X90400Y-59800D02*
G75*
G03X90400Y-59800I-50J0D01*
G74*
G01*
X90800Y-59800D02*
X90400Y-59800D01*
X90400Y-59800D02*
X90400Y-59200D01*
X90400Y-59200D02*
X90800Y-59200D01*
X91200Y-59200D02*
X91600Y-59200D01*
X91600Y-59200D02*
X91600Y-59800D01*
X91600Y-59800D02*
X91200Y-59800D01*
X90400Y-62800D02*
G75*
G03X90400Y-62800I-50J0D01*
G74*
G01*
X90800Y-62800D02*
X90400Y-62800D01*
X90400Y-62800D02*
X90400Y-62200D01*
X90400Y-62200D02*
X90800Y-62200D01*
X91200Y-62200D02*
X91600Y-62200D01*
X91600Y-62200D02*
X91600Y-62800D01*
X91600Y-62800D02*
X91200Y-62800D01*
X92250Y-63850D02*
G75*
G03X92250Y-63850I-50J0D01*
G74*
G01*
X92200Y-64300D02*
X92200Y-63900D01*
X92200Y-63900D02*
X92800Y-63900D01*
X92800Y-63900D02*
X92800Y-64300D01*
X92800Y-64700D02*
X92800Y-65100D01*
X92800Y-65100D02*
X92200Y-65100D01*
X92200Y-65100D02*
X92200Y-64700D01*
X91700Y-64700D02*
G75*
G03X91700Y-64700I-50J0D01*
G74*
G01*
X91200Y-64700D02*
X91600Y-64700D01*
X91600Y-64700D02*
X91600Y-65300D01*
X91600Y-65300D02*
X91200Y-65300D01*
X90800Y-65300D02*
X90400Y-65300D01*
X90400Y-65300D02*
X90400Y-64700D01*
X90400Y-64700D02*
X90800Y-64700D01*
X91700Y-63700D02*
G75*
G03X91700Y-63700I-50J0D01*
G74*
G01*
X91200Y-63700D02*
X91600Y-63700D01*
X91600Y-63700D02*
X91600Y-64300D01*
X91600Y-64300D02*
X91200Y-64300D01*
X90800Y-64300D02*
X90400Y-64300D01*
X90400Y-64300D02*
X90400Y-63700D01*
X90400Y-63700D02*
X90800Y-63700D01*
X90100Y-60350D02*
G75*
G03X90100Y-60350I-50J0D01*
G74*
G01*
X90050Y-60800D02*
X90050Y-60400D01*
X90050Y-60400D02*
X90650Y-60400D01*
X90650Y-60400D02*
X90650Y-60800D01*
X90650Y-61200D02*
X90650Y-61600D01*
X90650Y-61600D02*
X90050Y-61600D01*
X90050Y-61600D02*
X90050Y-61200D01*
X91350Y-60350D02*
G75*
G03X91350Y-60350I-50J0D01*
G74*
G01*
X91300Y-60800D02*
X91300Y-60400D01*
X91300Y-60400D02*
X91900Y-60400D01*
X91900Y-60400D02*
X91900Y-60800D01*
X91900Y-61200D02*
X91900Y-61600D01*
X91900Y-61600D02*
X91300Y-61600D01*
X91300Y-61600D02*
X91300Y-61200D01*
X92350Y-58550D02*
G75*
G03X92350Y-58550I-50J0D01*
G74*
G01*
X92300Y-59000D02*
X92300Y-58600D01*
X92300Y-58600D02*
X92900Y-58600D01*
X92900Y-58600D02*
X92900Y-59000D01*
X92900Y-59400D02*
X92900Y-59800D01*
X92900Y-59800D02*
X92300Y-59800D01*
X92300Y-59800D02*
X92300Y-59400D01*
G54D12*
X97000Y-61000D02*
X98000Y-61000D01*
X98000Y-61000D02*
X98000Y-67000D01*
X98000Y-67000D02*
X97000Y-67000D01*
X97000Y-67000D02*
X97000Y-61000D01*
X97000Y-62000D02*
X98000Y-62000D01*
X96000Y-67000D02*
X96000Y-67000D01*
X96000Y-66000D02*
X96000Y-67000D01*
X96000Y-67000D02*
X96000Y-67000D01*
X96000Y-67000D02*
X92000Y-67000D01*
X92000Y-67000D02*
X92000Y-66000D01*
X92000Y-66000D02*
X96000Y-66000D01*
X95000Y-66000D02*
X95000Y-67000D01*
X91000Y-66000D02*
X91000Y-67000D01*
X91000Y-67000D02*
X89000Y-67000D01*
X89000Y-67000D02*
X89000Y-66000D01*
X89000Y-66000D02*
X91000Y-66000D01*
X89500Y-63000D02*
X88500Y-63000D01*
X88500Y-63000D02*
X88500Y-61000D01*
X88500Y-61000D02*
X89500Y-61000D01*
X89500Y-61000D02*
X89500Y-63000D01*
M02*
