M48
;DRILL file {Pcbnew (2013-07-07 BZR 4022)-stable} date 7/21/2013 3:20:34 PM
;FORMAT={2:4/ absolute / inch / suppress trailing zeros}
FMAT,2
INCH,LZ
T1C0.025
T2C0.032
%
G90
G05
M72
T1
X0898Y-0595
X0899Y-064
X0899Y-065
X0919Y-0588
X0921Y-0654
X0933Y-0647
X0938Y-0651
X094Y-0625
X09415Y-05965
X0949Y-06145
X0959Y-0616
X0965Y-0617
X0965Y-0648
X0968Y-0599
T2
X089Y-0615
X089Y-0625
X0895Y-0665
X0905Y-0665
X0925Y-0665
X0935Y-0665
X0945Y-0665
X0955Y-0665
X0975Y-0615
X0975Y-0625
X0975Y-0635
X0975Y-0645
X0975Y-0655
X0975Y-0665
T0
M30
