G04 (created by PCBNEW (2013-07-07 BZR 4022)-stable) date 7/21/2013 3:18:37 PM*
%MOIN*%
G04 Gerber Fmt 3.4, Leading zero omitted, Abs format*
%FSLAX34Y34*%
G01*
G70*
G90*
G04 APERTURE LIST*
%ADD10C,0.00590551*%
%ADD11R,0.0787402X0.0472441*%
%ADD12R,0.102362X0.102362*%
%ADD13R,0.00984252X0.0511811*%
%ADD14R,0.0511811X0.00984252*%
%ADD15R,0.035X0.055*%
%ADD16R,0.055X0.035*%
%ADD17R,0.055X0.055*%
%ADD18C,0.055*%
%ADD19C,0.035*%
%ADD20C,0.01*%
%ADD21C,0.02*%
G04 APERTURE END LIST*
G54D10*
G54D11*
X94548Y-60314D03*
X95651Y-60314D03*
X94548Y-59685D03*
X95651Y-59685D03*
G54D12*
X94000Y-62500D03*
G54D13*
X94000Y-61594D03*
X93803Y-61594D03*
X93606Y-61594D03*
X94196Y-61594D03*
X94393Y-61594D03*
X94000Y-63405D03*
X93803Y-63405D03*
X93606Y-63405D03*
X94196Y-63405D03*
X94393Y-63405D03*
G54D14*
X94905Y-62106D03*
X94905Y-62303D03*
X94905Y-62500D03*
X94905Y-62696D03*
X94905Y-62893D03*
X93094Y-62893D03*
X93094Y-62696D03*
X93094Y-62500D03*
X93094Y-62303D03*
X93094Y-62106D03*
G54D15*
X90625Y-59500D03*
X91375Y-59500D03*
X90625Y-62500D03*
X91375Y-62500D03*
G54D16*
X92500Y-64125D03*
X92500Y-64875D03*
G54D15*
X91375Y-65000D03*
X90625Y-65000D03*
X91375Y-64000D03*
X90625Y-64000D03*
G54D16*
X90350Y-60625D03*
X90350Y-61375D03*
X91600Y-60625D03*
X91600Y-61375D03*
X92600Y-58825D03*
X92600Y-59575D03*
G54D17*
X97500Y-61500D03*
G54D18*
X97500Y-62500D03*
X97500Y-63500D03*
X97500Y-64500D03*
X97500Y-65500D03*
X97500Y-66500D03*
G54D17*
X95500Y-66500D03*
G54D18*
X94500Y-66500D03*
X93500Y-66500D03*
X92500Y-66500D03*
G54D17*
X90500Y-66500D03*
G54D18*
X89500Y-66500D03*
G54D17*
X89000Y-62500D03*
G54D18*
X89000Y-61500D03*
G54D19*
X93800Y-65100D03*
X95900Y-61600D03*
X96800Y-59900D03*
X93300Y-64700D03*
X96500Y-64800D03*
X96500Y-61700D03*
X94150Y-59650D03*
X94900Y-61450D03*
X89800Y-59500D03*
X91900Y-58800D03*
X94000Y-62500D03*
X92100Y-65400D03*
X89900Y-65000D03*
X89900Y-64000D03*
G54D20*
X93803Y-61712D02*
X93803Y-59303D01*
X93500Y-65400D02*
X93500Y-66500D01*
X93800Y-65100D02*
X93500Y-65400D01*
X96400Y-61100D02*
X95900Y-61600D01*
X96400Y-59300D02*
X96400Y-61100D01*
X96200Y-59100D02*
X96400Y-59300D01*
X94006Y-59100D02*
X96200Y-59100D01*
X93803Y-59303D02*
X94006Y-59100D01*
X92500Y-66500D02*
X92500Y-66300D01*
X93606Y-58993D02*
X93606Y-61712D01*
X93800Y-58800D02*
X93606Y-58993D01*
X96400Y-58800D02*
X93800Y-58800D01*
X96800Y-59200D02*
X96400Y-58800D01*
X96800Y-59900D02*
X96800Y-59200D01*
X93200Y-64800D02*
X93300Y-64700D01*
X93200Y-65600D02*
X93200Y-64800D01*
X92500Y-66300D02*
X93200Y-65600D01*
X93200Y-59600D02*
X93200Y-58900D01*
X97200Y-66500D02*
X97500Y-66500D01*
X96500Y-65800D02*
X97200Y-66500D01*
X96500Y-64800D02*
X96500Y-65800D01*
X96700Y-61500D02*
X96500Y-61700D01*
X96700Y-60900D02*
X96700Y-61500D01*
X97200Y-60400D02*
X96700Y-60900D01*
X97200Y-59100D02*
X97200Y-60400D01*
X96600Y-58500D02*
X97200Y-59100D01*
X93600Y-58500D02*
X96600Y-58500D01*
X93200Y-58900D02*
X93600Y-58500D01*
X93212Y-59600D02*
X93200Y-59600D01*
X93200Y-59600D02*
X92625Y-59600D01*
X92625Y-59600D02*
X92600Y-59575D01*
X93212Y-62106D02*
X93212Y-59600D01*
G54D21*
X94666Y-59685D02*
X94185Y-59685D01*
X94185Y-59685D02*
X94150Y-59650D01*
X95533Y-60314D02*
X95533Y-60666D01*
X94900Y-61300D02*
X94900Y-61450D01*
X95533Y-60666D02*
X94900Y-61300D01*
X90625Y-59500D02*
X89800Y-59500D01*
X92600Y-58825D02*
X91925Y-58825D01*
X91925Y-58825D02*
X91900Y-58800D01*
G54D20*
X94000Y-61712D02*
X94000Y-62500D01*
G54D21*
X92500Y-64875D02*
X92500Y-65000D01*
X92500Y-65000D02*
X92100Y-65400D01*
X90625Y-65000D02*
X89900Y-65000D01*
X90625Y-64000D02*
X89900Y-64000D01*
G54D20*
X97500Y-65500D02*
X97000Y-65000D01*
X96093Y-62893D02*
X94787Y-62893D01*
X96700Y-63500D02*
X96093Y-62893D01*
X96700Y-64000D02*
X96700Y-63500D01*
X97000Y-64300D02*
X96700Y-64000D01*
X97000Y-65000D02*
X97000Y-64300D01*
G54D21*
X91375Y-65000D02*
X91375Y-65575D01*
X90300Y-65700D02*
X89500Y-66500D01*
X91250Y-65700D02*
X90300Y-65700D01*
X91375Y-65575D02*
X91250Y-65700D01*
X91375Y-64000D02*
X91375Y-65000D01*
X92500Y-64125D02*
X91500Y-64125D01*
X91500Y-64125D02*
X91375Y-64000D01*
G54D20*
X93606Y-63287D02*
X93606Y-64125D01*
G54D21*
X92500Y-64125D02*
X93606Y-64125D01*
X93606Y-64125D02*
X93775Y-64125D01*
G54D20*
X94000Y-63900D02*
X94000Y-63287D01*
X93775Y-64125D02*
X94000Y-63900D01*
X91600Y-60625D02*
X91875Y-60625D01*
X92703Y-62303D02*
X93212Y-62303D01*
X92200Y-61800D02*
X92703Y-62303D01*
X92200Y-60950D02*
X92200Y-61800D01*
X91875Y-60625D02*
X92200Y-60950D01*
X90350Y-60625D02*
X91600Y-60625D01*
X91375Y-59500D02*
X91375Y-59875D01*
X91600Y-60100D02*
X91600Y-60625D01*
X91375Y-59875D02*
X91600Y-60100D01*
X90625Y-62500D02*
X89000Y-62500D01*
X90350Y-61375D02*
X90350Y-62225D01*
X90350Y-62225D02*
X90625Y-62500D01*
X97500Y-64500D02*
X97000Y-64000D01*
X96296Y-62696D02*
X94787Y-62696D01*
X97000Y-63400D02*
X96296Y-62696D01*
X97000Y-64000D02*
X97000Y-63400D01*
X91375Y-62500D02*
X93212Y-62500D01*
X91600Y-61375D02*
X91600Y-62275D01*
X91600Y-62275D02*
X91375Y-62500D01*
X97500Y-63500D02*
X97000Y-63000D01*
X96800Y-62500D02*
X94787Y-62500D01*
X97000Y-62700D02*
X96800Y-62500D01*
X97000Y-63000D02*
X97000Y-62700D01*
X94787Y-62303D02*
X97303Y-62303D01*
X97303Y-62303D02*
X97500Y-62500D01*
X94787Y-62106D02*
X96893Y-62106D01*
X96893Y-62106D02*
X97500Y-61500D01*
X94196Y-63287D02*
X94196Y-65496D01*
X94500Y-65800D02*
X94500Y-66500D01*
X94196Y-65496D02*
X94500Y-65800D01*
X94393Y-63287D02*
X94393Y-65293D01*
X95500Y-66400D02*
X95500Y-66500D01*
X94393Y-65293D02*
X95500Y-66400D01*
X94393Y-61712D02*
X94393Y-61306D01*
X95314Y-59685D02*
X95533Y-59685D01*
X95100Y-59900D02*
X95314Y-59685D01*
X95100Y-60600D02*
X95100Y-59900D01*
X94393Y-61306D02*
X95100Y-60600D01*
X94666Y-60314D02*
X94666Y-60533D01*
X94196Y-61003D02*
X94196Y-61712D01*
X94666Y-60533D02*
X94196Y-61003D01*
M02*
