G04 (created by PCBNEW (2013-07-07 BZR 4022)-stable) date 7/21/2013 3:18:37 PM*
%MOIN*%
G04 Gerber Fmt 3.4, Leading zero omitted, Abs format*
%FSLAX34Y34*%
G01*
G70*
G90*
G04 APERTURE LIST*
%ADD10C,0.00590551*%
%ADD11R,0.0787402X0.0472441*%
%ADD12R,0.102362X0.102362*%
%ADD13R,0.00984252X0.0511811*%
%ADD14R,0.0511811X0.00984252*%
%ADD15R,0.035X0.055*%
%ADD16R,0.055X0.035*%
%ADD17R,0.055X0.055*%
%ADD18C,0.055*%
G04 APERTURE END LIST*
G54D10*
G54D11*
X94548Y-60314D03*
X95651Y-60314D03*
X94548Y-59685D03*
X95651Y-59685D03*
G54D12*
X94000Y-62500D03*
G54D13*
X94000Y-61594D03*
X93803Y-61594D03*
X93606Y-61594D03*
X94196Y-61594D03*
X94393Y-61594D03*
X94000Y-63405D03*
X93803Y-63405D03*
X93606Y-63405D03*
X94196Y-63405D03*
X94393Y-63405D03*
G54D14*
X94905Y-62106D03*
X94905Y-62303D03*
X94905Y-62500D03*
X94905Y-62696D03*
X94905Y-62893D03*
X93094Y-62893D03*
X93094Y-62696D03*
X93094Y-62500D03*
X93094Y-62303D03*
X93094Y-62106D03*
G54D15*
X90625Y-59500D03*
X91375Y-59500D03*
X90625Y-62500D03*
X91375Y-62500D03*
G54D16*
X92500Y-64125D03*
X92500Y-64875D03*
G54D15*
X91375Y-65000D03*
X90625Y-65000D03*
X91375Y-64000D03*
X90625Y-64000D03*
G54D16*
X90350Y-60625D03*
X90350Y-61375D03*
X91600Y-60625D03*
X91600Y-61375D03*
X92600Y-58825D03*
X92600Y-59575D03*
G54D17*
X97500Y-61500D03*
G54D18*
X97500Y-62500D03*
X97500Y-63500D03*
X97500Y-64500D03*
X97500Y-65500D03*
X97500Y-66500D03*
G54D17*
X95500Y-66500D03*
G54D18*
X94500Y-66500D03*
X93500Y-66500D03*
X92500Y-66500D03*
G54D17*
X90500Y-66500D03*
G54D18*
X89500Y-66500D03*
G54D17*
X89000Y-62500D03*
G54D18*
X89000Y-61500D03*
M02*
