G04 (created by PCBNEW (2013-07-07 BZR 4022)-stable) date 7/21/2013 3:18:37 PM*
%MOIN*%
G04 Gerber Fmt 3.4, Leading zero omitted, Abs format*
%FSLAX34Y34*%
G01*
G70*
G90*
G04 APERTURE LIST*
%ADD10C,0.00590551*%
%ADD11C,0.008*%
%ADD12C,0.01*%
%ADD13C,0.011811*%
G04 APERTURE END LIST*
G54D10*
G54D11*
X97023Y-66642D02*
X96966Y-66661D01*
X96871Y-66661D01*
X96833Y-66642D01*
X96814Y-66623D01*
X96795Y-66585D01*
X96795Y-66547D01*
X96814Y-66509D01*
X96833Y-66490D01*
X96871Y-66471D01*
X96947Y-66452D01*
X96985Y-66433D01*
X97004Y-66414D01*
X97023Y-66376D01*
X97023Y-66338D01*
X97004Y-66300D01*
X96985Y-66280D01*
X96947Y-66261D01*
X96852Y-66261D01*
X96795Y-66280D01*
X96623Y-66661D02*
X96623Y-66261D01*
X96528Y-66261D01*
X96471Y-66280D01*
X96433Y-66319D01*
X96414Y-66357D01*
X96395Y-66433D01*
X96395Y-66490D01*
X96414Y-66566D01*
X96433Y-66604D01*
X96471Y-66642D01*
X96528Y-66661D01*
X96623Y-66661D01*
X96223Y-66661D02*
X96223Y-66261D01*
X95995Y-66661D01*
X95995Y-66261D01*
G54D12*
X96880Y-65702D02*
X96880Y-65202D01*
X96357Y-65702D02*
X96523Y-65464D01*
X96642Y-65702D02*
X96642Y-65202D01*
X96452Y-65202D01*
X96404Y-65226D01*
X96380Y-65250D01*
X96357Y-65297D01*
X96357Y-65369D01*
X96380Y-65416D01*
X96404Y-65440D01*
X96452Y-65464D01*
X96642Y-65464D01*
X95809Y-65750D02*
X95857Y-65726D01*
X95904Y-65678D01*
X95976Y-65607D01*
X96023Y-65583D01*
X96071Y-65583D01*
X96047Y-65702D02*
X96095Y-65678D01*
X96142Y-65630D01*
X96166Y-65535D01*
X96166Y-65369D01*
X96142Y-65273D01*
X96095Y-65226D01*
X96047Y-65202D01*
X95952Y-65202D01*
X95904Y-65226D01*
X95857Y-65273D01*
X95833Y-65369D01*
X95833Y-65535D01*
X95857Y-65630D01*
X95904Y-65678D01*
X95952Y-65702D01*
X96047Y-65702D01*
G54D13*
X96887Y-64710D02*
X96803Y-64739D01*
X96662Y-64739D01*
X96606Y-64710D01*
X96578Y-64682D01*
X96550Y-64626D01*
X96550Y-64570D01*
X96578Y-64514D01*
X96606Y-64485D01*
X96662Y-64457D01*
X96775Y-64429D01*
X96831Y-64401D01*
X96859Y-64373D01*
X96887Y-64317D01*
X96887Y-64260D01*
X96859Y-64204D01*
X96831Y-64176D01*
X96775Y-64148D01*
X96634Y-64148D01*
X96550Y-64176D01*
X95959Y-64682D02*
X95987Y-64710D01*
X96071Y-64739D01*
X96128Y-64739D01*
X96212Y-64710D01*
X96268Y-64654D01*
X96296Y-64598D01*
X96325Y-64485D01*
X96325Y-64401D01*
X96296Y-64289D01*
X96268Y-64232D01*
X96212Y-64176D01*
X96128Y-64148D01*
X96071Y-64148D01*
X95987Y-64176D01*
X95959Y-64204D01*
X95425Y-64739D02*
X95706Y-64739D01*
X95706Y-64148D01*
X95228Y-64739D02*
X95228Y-64148D01*
X94890Y-64739D02*
X95143Y-64401D01*
X94890Y-64148D02*
X95228Y-64485D01*
X96887Y-63710D02*
X96803Y-63739D01*
X96662Y-63739D01*
X96606Y-63710D01*
X96578Y-63682D01*
X96550Y-63626D01*
X96550Y-63570D01*
X96578Y-63514D01*
X96606Y-63485D01*
X96662Y-63457D01*
X96775Y-63429D01*
X96831Y-63401D01*
X96859Y-63373D01*
X96887Y-63317D01*
X96887Y-63260D01*
X96859Y-63204D01*
X96831Y-63176D01*
X96775Y-63148D01*
X96634Y-63148D01*
X96550Y-63176D01*
X96296Y-63739D02*
X96296Y-63148D01*
X96156Y-63148D01*
X96071Y-63176D01*
X96015Y-63232D01*
X95987Y-63289D01*
X95959Y-63401D01*
X95959Y-63485D01*
X95987Y-63598D01*
X96015Y-63654D01*
X96071Y-63710D01*
X96156Y-63739D01*
X96296Y-63739D01*
X95593Y-63148D02*
X95481Y-63148D01*
X95425Y-63176D01*
X95368Y-63232D01*
X95340Y-63345D01*
X95340Y-63542D01*
X95368Y-63654D01*
X95425Y-63710D01*
X95481Y-63739D01*
X95593Y-63739D01*
X95650Y-63710D01*
X95706Y-63654D01*
X95734Y-63542D01*
X95734Y-63345D01*
X95706Y-63232D01*
X95650Y-63176D01*
X95593Y-63148D01*
X96887Y-62710D02*
X96803Y-62739D01*
X96662Y-62739D01*
X96606Y-62710D01*
X96578Y-62682D01*
X96550Y-62626D01*
X96550Y-62570D01*
X96578Y-62514D01*
X96606Y-62485D01*
X96662Y-62457D01*
X96775Y-62429D01*
X96831Y-62401D01*
X96859Y-62373D01*
X96887Y-62317D01*
X96887Y-62260D01*
X96859Y-62204D01*
X96831Y-62176D01*
X96775Y-62148D01*
X96634Y-62148D01*
X96550Y-62176D01*
X96296Y-62739D02*
X96296Y-62148D01*
X96156Y-62148D01*
X96071Y-62176D01*
X96015Y-62232D01*
X95987Y-62289D01*
X95959Y-62401D01*
X95959Y-62485D01*
X95987Y-62598D01*
X96015Y-62654D01*
X96071Y-62710D01*
X96156Y-62739D01*
X96296Y-62739D01*
X95706Y-62739D02*
X95706Y-62148D01*
X96887Y-61710D02*
X96803Y-61739D01*
X96662Y-61739D01*
X96606Y-61710D01*
X96578Y-61682D01*
X96550Y-61626D01*
X96550Y-61570D01*
X96578Y-61514D01*
X96606Y-61485D01*
X96662Y-61457D01*
X96775Y-61429D01*
X96831Y-61401D01*
X96859Y-61373D01*
X96887Y-61317D01*
X96887Y-61260D01*
X96859Y-61204D01*
X96831Y-61176D01*
X96775Y-61148D01*
X96634Y-61148D01*
X96550Y-61176D01*
X96296Y-61429D02*
X96100Y-61429D01*
X96015Y-61739D02*
X96296Y-61739D01*
X96296Y-61148D01*
X96015Y-61148D01*
X95481Y-61739D02*
X95762Y-61739D01*
X95762Y-61148D01*
G54D11*
X92738Y-65942D02*
X92738Y-65695D01*
X92585Y-65828D01*
X92585Y-65771D01*
X92566Y-65733D01*
X92547Y-65714D01*
X92509Y-65695D01*
X92414Y-65695D01*
X92376Y-65714D01*
X92357Y-65733D01*
X92338Y-65771D01*
X92338Y-65885D01*
X92357Y-65923D01*
X92376Y-65942D01*
X93450Y-65923D02*
X93469Y-65904D01*
X93488Y-65866D01*
X93488Y-65771D01*
X93469Y-65733D01*
X93450Y-65714D01*
X93411Y-65695D01*
X93373Y-65695D01*
X93316Y-65714D01*
X93088Y-65942D01*
X93088Y-65695D01*
X95588Y-65828D02*
X95588Y-65790D01*
X95569Y-65752D01*
X95550Y-65733D01*
X95511Y-65714D01*
X95435Y-65695D01*
X95340Y-65695D01*
X95264Y-65714D01*
X95226Y-65733D01*
X95207Y-65752D01*
X95188Y-65790D01*
X95188Y-65828D01*
X95207Y-65866D01*
X95226Y-65885D01*
X95264Y-65904D01*
X95340Y-65923D01*
X95435Y-65923D01*
X95511Y-65904D01*
X95550Y-65885D01*
X95569Y-65866D01*
X95588Y-65828D01*
X94588Y-65695D02*
X94588Y-65923D01*
X94588Y-65809D02*
X94988Y-65809D01*
X94930Y-65847D01*
X94892Y-65885D01*
X94873Y-65923D01*
G54D13*
X94323Y-65590D02*
X94351Y-65646D01*
X94351Y-65731D01*
X94323Y-65815D01*
X94267Y-65871D01*
X94210Y-65899D01*
X94098Y-65928D01*
X94014Y-65928D01*
X93901Y-65899D01*
X93845Y-65871D01*
X93789Y-65815D01*
X93760Y-65731D01*
X93760Y-65674D01*
X93789Y-65590D01*
X93817Y-65562D01*
X94014Y-65562D01*
X94014Y-65674D01*
X93760Y-65309D02*
X94351Y-65309D01*
X94351Y-65084D01*
X94323Y-65028D01*
X94295Y-65000D01*
X94239Y-64971D01*
X94154Y-64971D01*
X94098Y-65000D01*
X94070Y-65028D01*
X94042Y-65084D01*
X94042Y-65309D01*
X93760Y-64718D02*
X94351Y-64718D01*
X94351Y-64325D02*
X94351Y-64212D01*
X94323Y-64156D01*
X94267Y-64100D01*
X94154Y-64071D01*
X93957Y-64071D01*
X93845Y-64100D01*
X93789Y-64156D01*
X93760Y-64212D01*
X93760Y-64325D01*
X93789Y-64381D01*
X93845Y-64437D01*
X93957Y-64465D01*
X94154Y-64465D01*
X94267Y-64437D01*
X94323Y-64381D01*
X94351Y-64325D01*
X90823Y-65550D02*
X90851Y-65606D01*
X90851Y-65690D01*
X90823Y-65775D01*
X90767Y-65831D01*
X90710Y-65859D01*
X90598Y-65887D01*
X90514Y-65887D01*
X90401Y-65859D01*
X90345Y-65831D01*
X90289Y-65775D01*
X90260Y-65690D01*
X90260Y-65634D01*
X90289Y-65550D01*
X90317Y-65521D01*
X90514Y-65521D01*
X90514Y-65634D01*
X90260Y-65268D02*
X90851Y-65268D01*
X90260Y-64931D01*
X90851Y-64931D01*
X90260Y-64650D02*
X90851Y-64650D01*
X90851Y-64509D01*
X90823Y-64425D01*
X90767Y-64368D01*
X90710Y-64340D01*
X90598Y-64312D01*
X90514Y-64312D01*
X90401Y-64340D01*
X90345Y-64368D01*
X90289Y-64425D01*
X90260Y-64509D01*
X90260Y-64650D01*
X89851Y-65915D02*
X89851Y-65550D01*
X89626Y-65746D01*
X89626Y-65662D01*
X89598Y-65606D01*
X89570Y-65578D01*
X89514Y-65550D01*
X89373Y-65550D01*
X89317Y-65578D01*
X89289Y-65606D01*
X89260Y-65662D01*
X89260Y-65831D01*
X89289Y-65887D01*
X89317Y-65915D01*
X89317Y-65296D02*
X89289Y-65268D01*
X89260Y-65296D01*
X89289Y-65325D01*
X89317Y-65296D01*
X89260Y-65296D01*
X89851Y-65071D02*
X89851Y-64706D01*
X89626Y-64903D01*
X89626Y-64818D01*
X89598Y-64762D01*
X89570Y-64734D01*
X89514Y-64706D01*
X89373Y-64706D01*
X89317Y-64734D01*
X89289Y-64762D01*
X89260Y-64818D01*
X89260Y-64987D01*
X89289Y-65043D01*
X89317Y-65071D01*
X89851Y-64537D02*
X89260Y-64340D01*
X89851Y-64143D01*
M02*
